<svg width="750" height="500" viewBox="0 0 750 500" fill="none" xmlns="http://www.w3.org/2000/svg">
<g clip-path="url(#clip0_153_1163)">
<path d="M705.197 405.675C710.396 383.455 723.216 252.617 674.984 163.144C626.752 73.671 543.77 21.498 454.151 21.498C364.532 21.498 306.252 46.871 257.874 122.24C209.496 197.609 164.415 170.59 92.139 220.491C42.852 254.52 27.402 334.004 49.681 405.608L705.197 405.675Z" fill="url(#paint0_linear_153_1163)"/>
<path d="M713.287 407.594H38.505C37.975 407.594 37.545 407.164 37.545 406.634C37.545 406.104 37.975 405.674 38.505 405.674H713.287C713.817 405.674 714.247 406.104 714.247 406.634C714.246 407.165 713.817 407.594 713.287 407.594Z" fill="#9DC4FC"/>
<path d="M722.318 312.283C720.854 317.987 721.687 321.725 723.466 333.761C725.245 345.797 719.599 348.097 717.299 356.043C714.999 363.989 719.181 368.713 718.554 378.479C717.927 388.245 707.054 397.068 703.29 400.915C699.526 404.762 699.526 405.674 699.526 405.674H676.107C676.107 405.674 678.29 395.772 675.212 388.453C672.134 381.135 668.579 363.725 679.661 355.075C690.743 346.424 694.716 346.006 696.807 335.551C698.899 325.097 710.399 316.825 722.318 312.283Z" fill="#6C63FF"/>
<path d="M715.693 321.387C712.325 325.911 709.655 330.973 707.139 336.007C704.225 341.836 701.641 347.833 699.286 353.908C697.139 359.446 695.173 365.067 693.554 370.783C692.139 375.778 691.009 380.864 689.963 385.947C688.869 391.261 687.934 396.604 687.261 401.989C687.197 402.501 687.091 403.022 687.059 403.535C687.046 403.747 686.661 403.844 686.678 403.575C686.75 402.438 686.759 401.308 686.89 400.172C687.037 398.894 687.206 397.617 687.403 396.346C687.846 393.488 688.367 390.643 688.929 387.806C689.978 382.504 691.141 377.213 692.558 371.996C694.054 366.487 695.924 361.071 697.947 355.735C700.244 349.676 702.79 343.709 705.636 337.887C708.212 332.617 711.065 327.479 714.496 322.714C714.853 322.218 715.216 321.727 715.589 321.243C715.679 321.126 715.759 321.299 715.693 321.387Z" fill="#DEEDFE"/>
<path d="M729.336 360.523C721.13 364.068 710.438 370.5 704.719 378.225C699 385.95 699 405.675 699 405.675H705.59C705.59 405.675 706.238 403.469 708.725 400.864C711.212 398.259 715.442 396.572 719.669 392.842C723.896 389.112 726.594 384.678 726.842 375.552C727.09 366.426 727.223 362.201 729.336 360.523Z" fill="#6C63FF"/>
<path d="M723.091 365.83C721.16 367.939 719.148 369.951 717.327 372.162C715.544 374.326 713.848 376.563 712.258 378.873C709.129 383.418 706.486 388.302 704.517 393.461C703.386 396.425 702.499 399.464 701.627 402.511C701.587 402.652 701.33 402.753 701.358 402.534C701.715 399.736 702.517 396.979 703.479 394.332C704.438 391.693 705.575 389.12 706.865 386.626C709.446 381.636 712.596 376.879 716.301 372.651C717.364 371.437 718.456 370.25 719.571 369.083C720.682 367.921 721.809 366.746 723.045 365.717C723.09 365.68 723.118 365.8 723.091 365.83Z" fill="#DEEDFE"/>
<path d="M28.295 312.283C29.759 317.987 28.926 321.725 27.147 333.761C25.368 345.797 31.014 348.097 33.314 356.043C35.614 363.989 31.432 368.713 32.059 378.479C32.686 388.245 43.559 397.068 47.323 400.915C51.087 404.763 51.087 405.674 51.087 405.674H74.506C74.506 405.674 72.323 395.772 75.401 388.453C78.479 381.135 82.034 363.725 70.952 355.075C59.87 346.424 55.897 346.006 53.806 335.551C51.714 325.097 40.214 316.825 28.295 312.283Z" fill="#6C63FF"/>
<path d="M34.92 321.387C38.288 325.911 40.958 330.973 43.474 336.007C46.388 341.836 48.972 347.833 51.327 353.908C53.474 359.446 55.44 365.067 57.06 370.783C58.475 375.778 59.605 380.864 60.651 385.947C61.745 391.261 62.68 396.604 63.353 401.989C63.417 402.501 63.523 403.022 63.555 403.535C63.568 403.747 63.953 403.844 63.936 403.575C63.864 402.438 63.855 401.308 63.724 400.172C63.577 398.894 63.408 397.617 63.211 396.346C62.768 393.488 62.247 390.643 61.686 387.806C60.637 382.504 59.474 377.213 58.057 371.996C56.561 366.487 54.691 361.071 52.668 355.735C50.371 349.676 47.825 343.709 44.979 337.887C42.403 332.617 39.55 327.479 36.119 322.714C35.762 322.218 35.399 321.727 35.026 321.243C34.934 321.126 34.855 321.299 34.92 321.387Z" fill="#DEEDFE"/>
<path d="M21.277 360.523C29.483 364.068 40.175 370.5 45.894 378.225C51.613 385.95 51.613 405.674 51.613 405.674H45.023C45.023 405.674 44.375 403.468 41.888 400.863C39.401 398.258 35.171 396.571 30.944 392.841C26.717 389.111 24.019 384.677 23.771 375.551C23.524 366.426 23.391 362.201 21.277 360.523Z" fill="#6C63FF"/>
<path d="M27.523 365.83C29.454 367.939 31.466 369.951 33.287 372.162C35.07 374.326 36.766 376.563 38.356 378.873C41.485 383.418 44.128 388.302 46.097 393.461C47.228 396.425 48.115 399.464 48.987 402.511C49.027 402.652 49.284 402.753 49.256 402.534C48.899 399.736 48.097 396.979 47.135 394.332C46.176 391.693 45.039 389.12 43.749 386.626C41.168 381.636 38.018 376.879 34.312 372.651C33.249 371.437 32.158 370.25 31.043 369.083C29.932 367.921 28.805 366.746 27.569 365.717C27.524 365.68 27.495 365.8 27.523 365.83Z" fill="#DEEDFE"/>
<path d="M555.677 405.674H329.422C324.704 405.674 320.879 401.849 320.879 397.131V85.7231C320.879 81.0051 324.704 77.1801 329.422 77.1801H555.676C560.394 77.1801 564.219 81.0051 564.219 85.7231V397.132C564.219 401.849 560.395 405.674 555.677 405.674Z" fill="#6C63FF"/>
<path d="M548.126 391.754H345.284C343.662 391.754 342.347 390.439 342.347 388.817V113.675C342.347 112.053 343.662 110.738 345.284 110.738H548.126C549.748 110.738 551.063 112.053 551.063 113.675V388.817C551.063 390.44 549.748 391.754 548.126 391.754Z" fill="#6C63FF"/>
<path d="M543.97 387.384H341.129C339.507 387.384 338.192 386.069 338.192 384.447V109.305C338.192 107.683 339.507 106.368 341.129 106.368H543.97C545.592 106.368 546.907 107.683 546.907 109.305V384.447C546.907 386.069 545.592 387.384 543.97 387.384Z" fill="white"/>
<path d="M500.154 143.21H387.051V151.13H500.154V143.21Z" fill="#6C63FF"/>
<path d="M517.747 161.242H369.457V169.162H517.747V161.242Z" fill="#6C63FF"/>
<path d="M393.224 216.452H362.499C361.857 216.452 361.335 215.93 361.335 215.287V184.562C361.335 183.92 361.857 183.398 362.499 183.398H393.224C393.866 183.398 394.388 183.921 394.388 184.562V215.287C394.388 215.93 393.866 216.452 393.224 216.452ZM362.499 184.346C362.38 184.346 362.282 184.443 362.282 184.563V215.288C362.282 215.408 362.379 215.505 362.499 215.505H393.224C393.343 215.505 393.441 215.408 393.441 215.288V184.563C393.441 184.444 393.344 184.346 393.224 184.346H362.499Z" fill="#DEEDFE"/>
<path d="M517.747 183.872H404.149V189.382H517.747V183.872Z" fill="#DEEDFE"/>
<path d="M517.747 197.17H404.149V202.68H517.747V197.17Z" fill="#DEEDFE"/>
<path d="M446.705 210.468H404.149V215.978H446.705V210.468Z" fill="#DEEDFE"/>
<path d="M364.689 199.724C365.406 201.357 366.644 202.573 367.843 203.859C368.841 204.929 369.836 206.003 370.845 207.062C371.933 208.205 373.085 209.291 374.206 210.401C374.807 210.996 375.78 211.139 376.575 211.039C377.451 210.929 378.06 210.539 378.618 209.867C380.924 207.092 383.232 204.319 385.528 201.536C388.829 197.535 392.13 193.535 395.431 189.534C396.111 188.709 396.811 187.897 397.471 187.056C397.687 186.78 397.898 186.5 398.11 186.221C398.196 186.108 398.283 185.996 398.366 185.881C398.606 185.551 398.735 185.189 399.017 184.848C399.142 184.697 398.569 185.447 398.7 185.289C399.501 184.319 399.324 182.93 398.238 182.227C397.231 181.576 395.486 181.409 394.627 182.45C394.625 182.452 394.618 182.461 394.618 182.461L394.609 182.471C395.623 181.727 394.778 182.319 394.584 182.491C394.533 182.536 394.487 182.587 394.437 182.634C394.252 182.81 394.071 182.992 393.893 183.175C393.18 183.908 392.529 184.706 391.878 185.493C390.289 187.415 388.701 189.337 387.112 191.259C383.413 195.734 379.71 200.207 376.026 204.695C375.263 205.624 374.5 206.553 373.738 207.483C375.209 207.305 376.679 207.128 378.15 206.95C377.222 206.055 376.295 205.159 375.367 204.264C374.538 203.464 373.66 202.714 372.797 201.952C372.355 201.561 371.912 201.171 371.469 200.781C370.955 200.329 370.442 199.875 369.934 199.416C369.178 198.734 368.266 198.218 367.361 197.764C366.685 197.425 365.746 197.361 365.124 197.839C364.519 198.304 364.384 199.031 364.689 199.724Z" fill="#67FF50"/>
<path d="M393.224 263.268H362.499C361.857 263.268 361.335 262.746 361.335 262.104V231.379C361.335 230.737 361.857 230.215 362.499 230.215H393.224C393.866 230.215 394.388 230.737 394.388 231.379V262.104C394.388 262.746 393.866 263.268 393.224 263.268ZM362.499 231.162C362.38 231.162 362.282 231.259 362.282 231.379V262.104C362.282 262.223 362.379 262.32 362.499 262.32H393.224C393.343 262.32 393.441 262.223 393.441 262.104V231.379C393.441 231.26 393.344 231.162 393.224 231.162H362.499Z" fill="#DEEDFE"/>
<path d="M517.747 230.689H404.149V236.199H517.747V230.689Z" fill="#DEEDFE"/>
<path d="M517.747 243.987H404.149V249.497H517.747V243.987Z" fill="#DEEDFE"/>
<path d="M446.705 257.285H404.149V262.795H446.705V257.285Z" fill="#DEEDFE"/>
<path d="M364.689 246.541C365.406 248.174 366.644 249.39 367.843 250.676C368.841 251.746 369.836 252.819 370.845 253.879C371.933 255.022 373.085 256.108 374.206 257.218C374.807 257.813 375.78 257.956 376.575 257.856C377.451 257.746 378.06 257.356 378.618 256.684C380.924 253.909 383.232 251.136 385.528 248.353C388.829 244.352 392.13 240.352 395.431 236.351C396.111 235.526 396.811 234.714 397.471 233.873C397.687 233.597 397.898 233.317 398.11 233.039C398.196 232.926 398.283 232.814 398.366 232.699C398.606 232.369 398.735 232.007 399.017 231.666C399.142 231.515 398.569 232.265 398.7 232.107C399.501 231.137 399.324 229.748 398.238 229.045C397.231 228.394 395.486 228.227 394.627 229.268C394.625 229.27 394.618 229.279 394.618 229.279L394.609 229.29C395.623 228.546 394.778 229.138 394.584 229.31C394.533 229.355 394.487 229.406 394.437 229.453C394.252 229.629 394.071 229.811 393.893 229.994C393.18 230.727 392.529 231.525 391.878 232.312C390.289 234.234 388.701 236.156 387.112 238.078C383.413 242.553 379.71 247.026 376.026 251.514C375.263 252.443 374.5 253.373 373.738 254.302C375.209 254.124 376.679 253.947 378.15 253.769C377.222 252.874 376.295 251.978 375.367 251.083C374.538 250.283 373.66 249.533 372.797 248.771C372.355 248.38 371.912 247.99 371.469 247.6C370.955 247.148 370.442 246.694 369.934 246.235C369.178 245.553 368.266 245.037 367.361 244.583C366.685 244.244 365.746 244.18 365.124 244.658C364.519 245.12 364.384 245.847 364.689 246.541Z" fill="#67FF50"/>
<path d="M393.224 310.085H362.499C361.857 310.085 361.335 309.563 361.335 308.921V278.196C361.335 277.554 361.857 277.032 362.499 277.032H393.224C393.866 277.032 394.388 277.554 394.388 278.196V308.921C394.388 309.563 393.866 310.085 393.224 310.085ZM362.499 277.979C362.38 277.979 362.282 278.076 362.282 278.195V308.92C362.282 309.039 362.379 309.137 362.499 309.137H393.224C393.343 309.137 393.441 309.04 393.441 308.92V278.195C393.441 278.076 393.344 277.979 393.224 277.979H362.499Z" fill="#DEEDFE"/>
<path d="M517.747 277.505H404.149V283.015H517.747V277.505Z" fill="#DEEDFE"/>
<path d="M517.747 290.803H404.149V296.313H517.747V290.803Z" fill="#DEEDFE"/>
<path d="M446.705 304.101H404.149V309.611H446.705V304.101Z" fill="#DEEDFE"/>
<path d="M364.689 293.357C365.406 294.99 366.644 296.206 367.843 297.492C368.841 298.562 369.836 299.636 370.845 300.695C371.933 301.838 373.085 302.924 374.206 304.034C374.807 304.629 375.78 304.772 376.575 304.672C377.451 304.562 378.06 304.172 378.618 303.5C380.924 300.725 383.232 297.952 385.528 295.169C388.829 291.168 392.13 287.168 395.431 283.167C396.111 282.342 396.811 281.53 397.471 280.689C397.687 280.413 397.898 280.133 398.11 279.855C398.196 279.742 398.283 279.63 398.366 279.515C398.606 279.185 398.735 278.823 399.017 278.482C399.142 278.331 398.569 279.081 398.7 278.923C399.501 277.953 399.324 276.564 398.238 275.861C397.231 275.21 395.486 275.044 394.627 276.084C394.625 276.086 394.618 276.095 394.618 276.095L394.609 276.106C395.623 275.362 394.778 275.954 394.584 276.126C394.533 276.171 394.487 276.222 394.437 276.269C394.252 276.445 394.071 276.627 393.893 276.81C393.18 277.543 392.529 278.341 391.878 279.128C390.289 281.05 388.701 282.972 387.112 284.894C383.413 289.37 379.71 293.842 376.026 298.33C375.263 299.259 374.5 300.188 373.738 301.118C375.209 300.94 376.679 300.763 378.15 300.585C377.222 299.69 376.295 298.794 375.367 297.899C374.538 297.099 373.66 296.349 372.797 295.587C372.355 295.196 371.912 294.806 371.469 294.416C370.955 293.964 370.442 293.51 369.934 293.051C369.178 292.369 368.266 291.853 367.361 291.399C366.685 291.06 365.746 290.996 365.124 291.474C364.519 291.937 364.384 292.664 364.689 293.357Z" fill="#67FF50"/>
<path d="M393.224 356.901H362.499C361.857 356.901 361.335 356.379 361.335 355.737V325.012C361.335 324.37 361.857 323.848 362.499 323.848H393.224C393.866 323.848 394.388 324.37 394.388 325.012V355.737C394.388 356.379 393.866 356.901 393.224 356.901ZM362.499 324.795C362.38 324.795 362.282 324.892 362.282 325.012V355.737C362.282 355.856 362.379 355.953 362.499 355.953H393.224C393.343 355.953 393.441 355.856 393.441 355.737V325.012C393.441 324.893 393.344 324.795 393.224 324.795H362.499Z" fill="#DEEDFE"/>
<path d="M517.747 324.322H404.149V329.832H517.747V324.322Z" fill="#DEEDFE"/>
<path d="M517.747 337.62H404.149V343.13H517.747V337.62Z" fill="#DEEDFE"/>
<path d="M446.705 350.918H404.149V356.428H446.705V350.918Z" fill="#DEEDFE"/>
<path d="M364.689 340.174C365.406 341.807 366.644 343.023 367.843 344.309C368.841 345.379 369.836 346.453 370.845 347.512C371.933 348.654 373.085 349.741 374.206 350.851C374.807 351.446 375.78 351.589 376.575 351.489C377.451 351.379 378.06 350.989 378.618 350.317C380.924 347.542 383.232 344.769 385.528 341.986C388.829 337.986 392.13 333.985 395.431 329.984C396.111 329.159 396.811 328.347 397.471 327.506C397.687 327.23 397.898 326.95 398.11 326.671C398.196 326.558 398.283 326.446 398.366 326.331C398.606 326.001 398.735 325.639 399.017 325.298C399.142 325.147 398.569 325.897 398.7 325.739C399.501 324.769 399.324 323.38 398.238 322.677C397.231 322.026 395.486 321.859 394.627 322.9C394.625 322.902 394.618 322.911 394.618 322.911L394.609 322.922C395.623 322.178 394.778 322.77 394.584 322.942C394.533 322.987 394.487 323.038 394.437 323.085C394.252 323.261 394.071 323.443 393.893 323.626C393.18 324.359 392.529 325.157 391.878 325.944C390.289 327.866 388.701 329.788 387.112 331.71C383.413 336.186 379.71 340.658 376.026 345.146C375.263 346.075 374.5 347.004 373.738 347.934C375.209 347.756 376.679 347.579 378.15 347.401C377.222 346.506 376.295 345.61 375.367 344.715C374.538 343.915 373.66 343.165 372.797 342.403C372.355 342.012 371.912 341.622 371.469 341.232C370.955 340.78 370.442 340.326 369.934 339.866C369.178 339.184 368.266 338.668 367.361 338.214C366.685 337.875 365.746 337.811 365.124 338.289C364.519 338.753 364.384 339.48 364.689 340.174Z" fill="#67FF50"/>
<path d="M506.508 124.777H378.591C375.067 124.777 372.199 121.91 372.199 118.386V99.214C372.199 95.69 375.067 92.822 378.591 92.822H506.509C510.033 92.822 512.9 95.69 512.9 99.214V118.385C512.9 121.91 510.033 124.777 506.508 124.777ZM378.591 95.359C376.465 95.359 374.736 97.088 374.736 99.214V118.385C374.736 120.51 376.465 122.24 378.591 122.24H506.509C508.635 122.24 510.365 120.511 510.365 118.385V99.214C510.365 97.088 508.635 95.359 506.509 95.359H378.591Z" fill="#DEEDFE"/>
<path d="M506.509 126.045H500.153V120.972H506.509C507.936 120.972 509.096 119.812 509.096 118.385V112.669H514.169V118.385C514.169 122.609 510.732 126.045 506.509 126.045Z" fill="#6C63FF"/>
<path d="M378.59 126.045H384.946V120.972H378.59C377.163 120.972 376.003 119.812 376.003 118.385V112.669H370.93V118.385C370.93 122.609 374.367 126.045 378.59 126.045Z" fill="#6C63FF"/>
<path d="M502.908 101.032H382.191C381.096 101.032 380.208 100.144 380.208 99.049V89.133C380.208 88.038 381.096 87.15 382.191 87.15H502.908C504.003 87.15 504.891 88.038 504.891 89.133V99.049C504.891 100.144 504.004 101.032 502.908 101.032Z" fill="#6C63FF"/>
<path d="M319.834 405.224H94.433C91.722 405.224 89.525 403.026 89.525 400.316V195.142H324.743V400.316C324.743 403.027 322.545 405.224 319.834 405.224Z" fill="#DEEDFE"/>
<path d="M319.834 405.674H94.433C91.479 405.674 89.075 403.27 89.075 400.316V194.692H325.192V400.316C325.193 403.27 322.789 405.674 319.834 405.674ZM89.975 195.592V400.317C89.975 402.775 91.975 404.775 94.433 404.775H319.834C322.293 404.775 324.293 402.775 324.293 400.317V195.592H89.975Z" fill="#6C63FF"/>
<path d="M330.696 405.674H101.697C98.743 405.674 96.339 403.27 96.339 400.316V195.142H97.239V400.316C97.239 402.774 99.239 404.774 101.698 404.774H330.697C333.155 404.774 335.156 402.774 335.156 400.316H336.056C336.055 403.27 333.651 405.674 330.696 405.674Z" fill="#6C63FF"/>
<path d="M337.96 405.674H108.96C106.006 405.674 103.602 403.27 103.602 400.316V195.142H104.502V400.316C104.502 402.774 106.502 404.774 108.96 404.774H337.96C340.418 404.774 342.418 402.774 342.418 400.316H343.318C343.318 403.27 340.914 405.674 337.96 405.674Z" fill="#6C63FF"/>
<path d="M345.223 405.224H116.223C113.512 405.224 111.315 403.026 111.315 400.316V195.142H350.131V400.316C350.132 403.027 347.934 405.224 345.223 405.224Z" fill="white"/>
<path d="M345.223 405.674H116.223C113.269 405.674 110.865 403.27 110.865 400.316V194.692H350.581V400.316C350.581 403.27 348.177 405.674 345.223 405.674ZM111.765 195.592V400.317C111.765 402.775 113.765 404.775 116.224 404.775H345.224C347.682 404.775 349.682 402.775 349.682 400.317V195.592H111.765Z" fill="#6C63FF"/>
<path d="M110.865 194.704H89.075V220.284H110.865V194.704Z" fill="#313180"/>
<path d="M110.866 220.285L350.582 220.285V194.693L110.866 194.693V220.285Z" fill="#6C63FF"/>
<path d="M88.203 274.225H96.339V240.398H88.203C86.912 240.398 85.865 241.445 85.865 242.736V271.887C85.865 273.178 86.912 274.225 88.203 274.225Z" fill="#6C63FF"/>
<path d="M95.466 297.601H103.601V263.774H95.466C94.175 263.774 93.128 264.821 93.128 266.112V295.263C93.129 296.554 94.175 297.601 95.466 297.601Z" fill="#6C63FF"/>
<path d="M146.501 207.664C146.501 210.069 144.586 212.018 142.224 212.018C139.862 212.018 137.947 210.069 137.947 207.664C137.947 205.259 139.862 203.31 142.224 203.31C144.586 203.31 146.501 205.259 146.501 207.664Z" fill="#313180"/>
<path d="M177.624 212.018C179.986 212.018 181.901 210.069 181.901 207.664C181.901 205.259 179.986 203.31 177.624 203.31C175.262 203.31 173.347 205.259 173.347 207.664C173.347 210.069 175.262 212.018 177.624 212.018Z" fill="#313180"/>
<path d="M213.023 212.018C215.385 212.018 217.3 210.069 217.3 207.664C217.3 205.259 215.385 203.31 213.023 203.31C210.661 203.31 208.746 205.259 208.746 207.664C208.746 210.069 210.661 212.018 213.023 212.018Z" fill="#313180"/>
<path d="M248.423 212.018C250.785 212.018 252.7 210.069 252.7 207.664C252.7 205.259 250.785 203.31 248.423 203.31C246.061 203.31 244.146 205.259 244.146 207.664C244.146 210.069 246.061 212.018 248.423 212.018Z" fill="#313180"/>
<path d="M283.823 212.018C286.185 212.018 288.1 210.069 288.1 207.664C288.1 205.259 286.185 203.31 283.823 203.31C281.461 203.31 279.546 205.259 279.546 207.664C279.546 210.069 281.461 212.018 283.823 212.018Z" fill="#313180"/>
<path d="M319.223 212.018C321.585 212.018 323.5 210.069 323.5 207.664C323.5 205.259 321.585 203.31 319.223 203.31C316.861 203.31 314.946 205.259 314.946 207.664C314.946 210.069 316.861 212.018 319.223 212.018Z" fill="#313180"/>
<path d="M146.501 207.66C146.501 210.071 144.585 212.015 142.227 212.015C140.059 212.015 138.268 210.387 137.989 208.263C137.962 208.065 137.944 207.867 137.944 207.66C137.944 206.337 138.52 205.159 139.437 204.358C139.653 204.214 139.86 204.07 140.058 203.908C140.697 203.521 141.435 203.305 142.226 203.305C142.937 203.305 143.612 203.485 144.196 203.791C145.565 204.529 146.501 205.987 146.501 207.66Z" fill="#313180"/>
<path d="M127.472 175.658C116.864 175.658 108.227 184.151 107.993 194.705H112.285C112.519 186.527 119.24 179.95 127.472 179.95C135.848 179.95 142.668 186.761 142.668 195.146C142.668 198.538 141.543 201.678 139.663 204.206C139.285 204.719 138.871 205.205 138.43 205.664C138.115 206.258 137.944 206.942 137.944 207.661C137.944 207.868 137.962 208.066 137.989 208.264C138.115 209.218 138.547 210.063 139.177 210.72C141.489 208.975 143.397 206.734 144.746 204.143C146.159 201.453 146.959 198.394 146.959 195.146C146.96 184.394 138.215 175.658 127.472 175.658Z" fill="#18185E"/>
<path d="M162.874 175.658C152.266 175.658 143.629 184.151 143.395 194.705H147.687C147.921 186.527 154.642 179.95 162.874 179.95C171.25 179.95 178.07 186.761 178.07 195.146C178.07 198.538 176.945 201.678 175.065 204.206C174.687 204.719 174.273 205.205 173.832 205.664C173.517 206.258 173.346 206.942 173.346 207.661C173.346 207.868 173.364 208.066 173.391 208.264C173.517 209.218 173.949 210.063 174.579 210.72C176.891 208.975 178.799 206.734 180.148 204.143C181.56 201.453 182.361 198.394 182.361 195.146C182.362 184.394 173.617 175.658 162.874 175.658Z" fill="#18185E"/>
<path d="M198.275 175.661C187.668 175.661 179.03 184.154 178.796 194.708H183.088C183.322 186.53 190.043 179.953 198.275 179.953C206.651 179.953 213.471 186.764 213.471 195.149C213.471 198.541 212.346 201.681 210.466 204.209C210.088 204.722 209.674 205.208 209.233 205.667C208.918 206.261 208.747 206.944 208.747 207.664C208.747 207.871 208.765 208.069 208.792 208.267C208.918 209.221 209.35 210.066 209.98 210.723C212.292 208.978 214.2 206.737 215.549 204.146C216.962 201.456 217.762 198.397 217.762 195.149C217.763 184.397 209.018 175.661 198.275 175.661Z" fill="#18185E"/>
<path d="M233.671 175.658C223.063 175.658 214.426 184.151 214.192 194.705H218.484C218.718 186.527 225.439 179.95 233.671 179.95C242.047 179.95 248.867 186.761 248.867 195.146C248.867 198.538 247.742 201.678 245.862 204.206C245.484 204.719 245.07 205.205 244.629 205.664C244.314 206.258 244.143 206.942 244.143 207.661C244.143 207.868 244.161 208.066 244.188 208.264C244.314 209.218 244.746 210.063 245.376 210.72C247.688 208.975 249.596 206.734 250.945 204.143C252.358 201.453 253.158 198.394 253.158 195.146C253.159 184.394 244.413 175.658 233.671 175.658Z" fill="#18185E"/>
<path d="M269.07 175.658C258.462 175.658 249.825 184.151 249.591 194.705H253.883C254.117 186.527 260.838 179.95 269.07 179.95C277.446 179.95 284.266 186.761 284.266 195.146C284.266 198.538 283.141 201.678 281.261 204.206C280.883 204.719 280.469 205.205 280.028 205.664C279.713 206.258 279.542 206.942 279.542 207.661C279.542 207.868 279.56 208.066 279.587 208.264C279.713 209.218 280.145 210.063 280.775 210.72C283.087 208.975 284.995 206.734 286.344 204.143C287.757 201.453 288.557 198.394 288.557 195.146C288.558 184.394 279.813 175.658 269.07 175.658Z" fill="#18185E"/>
<path d="M304.473 175.658C293.865 175.658 285.228 184.151 284.994 194.705H289.286C289.52 186.527 296.241 179.95 304.473 179.95C312.849 179.95 319.669 186.761 319.669 195.146C319.669 198.538 318.544 201.678 316.664 204.206C316.286 204.719 315.872 205.205 315.431 205.664C315.116 206.258 314.945 206.942 314.945 207.661C314.945 207.868 314.963 208.066 314.99 208.264C315.116 209.218 315.548 210.063 316.178 210.72C318.49 208.975 320.398 206.734 321.747 204.143C323.16 201.453 323.96 198.394 323.96 195.146C323.961 184.394 315.215 175.658 304.473 175.658Z" fill="#18185E"/>
<path d="M333.057 258.297H128.39C127.543 258.297 126.857 257.611 126.857 256.764V236.35C126.857 235.504 127.543 234.817 128.39 234.817H333.058C333.904 234.817 334.591 235.503 334.591 236.35V256.764C334.59 257.611 333.904 258.297 333.057 258.297Z" fill="#DEEDFE"/>
<path d="M151.904 272.83H126.857V291.43H151.904V272.83Z" fill="#EBF7FF"/>
<path d="M182.352 272.83H157.305V291.43H182.352V272.83Z" fill="#EBF7FF"/>
<path d="M212.799 272.83H187.752V291.43H212.799V272.83Z" fill="#DEEDFE"/>
<path d="M243.247 272.83H218.2V291.43H243.247V272.83Z" fill="#DEEDFE"/>
<path d="M273.694 272.83H248.647V291.43H273.694V272.83Z" fill="#FB929C"/>
<path d="M304.142 272.83H279.095V291.43H304.142V272.83Z" fill="#DEEDFE"/>
<path d="M334.59 272.83H309.543V291.43H334.59V272.83Z" fill="#DEEDFE"/>
<path d="M151.904 297.542H126.857V316.142H151.904V297.542Z" fill="#DEEDFE"/>
<path d="M182.352 297.542H157.305V316.142H182.352V297.542Z" fill="#DEEDFE"/>
<path d="M212.799 297.542H187.752V316.142H212.799V297.542Z" fill="#DEEDFE"/>
<path d="M243.247 297.542H218.2V316.142H243.247V297.542Z" fill="#DEEDFE"/>
<path d="M273.694 297.542H248.647V316.142H273.694V297.542Z" fill="#DEEDFE"/>
<path d="M304.142 297.542H279.095V316.142H304.142V297.542Z" fill="#DEEDFE"/>
<path d="M334.59 297.542H309.543V316.142H334.59V297.542Z" fill="#DEEDFE"/>
<path d="M151.904 322.255H126.857V340.855H151.904V322.255Z" fill="#DEEDFE"/>
<path d="M182.352 322.255H157.305V340.855H182.352V322.255Z" fill="#DEEDFE"/>
<path d="M212.799 322.255H187.752V340.855H212.799V322.255Z" fill="#DEEDFE"/>
<path d="M243.247 322.255H218.2V340.855H243.247V322.255Z" fill="#DEEDFE"/>
<path d="M273.694 322.255H248.647V340.855H273.694V322.255Z" fill="#DEEDFE"/>
<path d="M304.142 322.255H279.095V340.855H304.142V322.255Z" fill="#DEEDFE"/>
<path d="M334.59 322.255H309.543V340.855H334.59V322.255Z" fill="#DEEDFE"/>
<path d="M151.904 346.968H126.857V365.568H151.904V346.968Z" fill="#DEEDFE"/>
<path d="M182.352 346.968H157.305V365.568H182.352V346.968Z" fill="#DEEDFE"/>
<path d="M212.799 346.968H187.752V365.568H212.799V346.968Z" fill="#DEEDFE"/>
<path d="M243.247 346.968H218.2V365.568H243.247V346.968Z" fill="#DEEDFE"/>
<path d="M273.694 346.968H248.647V365.568H273.694V346.968Z" fill="#DEEDFE"/>
<path d="M304.142 346.968H279.095V365.568H304.142V346.968Z" fill="#DEEDFE"/>
<path d="M334.59 346.968H309.543V365.568H334.59V346.968Z" fill="#DEEDFE"/>
<path d="M151.904 371.681H126.857V390.281H151.904V371.681Z" fill="#DEEDFE"/>
<path d="M182.352 371.681H157.305V390.281H182.352V371.681Z" fill="#DEEDFE"/>
<path d="M212.799 371.681H187.752V390.281H212.799V371.681Z" fill="#DEEDFE"/>
<path d="M243.247 371.681H218.2V390.281H243.247V371.681Z" fill="#DEEDFE"/>
<path d="M273.694 371.681H248.647V390.281H273.694V371.681Z" fill="#DEEDFE"/>
<path d="M304.142 371.681H279.095V390.281H304.142V371.681Z" fill="#EBF7FF"/>
<path d="M334.59 371.681H309.543V390.281H334.59V371.681Z" fill="#EBF7FF"/>
<path d="M170.128 320.033C169.08 319.957 168.205 319.928 167.176 320.113C166.318 320.268 165.46 320.479 164.64 320.776C163.362 321.239 162.16 321.864 161.053 322.655C158.858 324.224 156.998 326.376 155.989 328.901C154.925 331.562 154.916 334.536 156.194 337.125C157.442 339.651 159.878 341.335 162.465 342.303C167.173 344.064 172.817 343.95 177.355 341.731C179.337 340.762 181.038 339.158 182.282 337.345C183.756 335.197 184.165 332.366 183.453 329.867C181.581 323.292 172.978 321.174 167.184 323.42C166.319 323.755 167.218 324.938 167.914 324.787C169.418 324.462 171.016 324.683 172.513 324.971C173.833 325.225 175.173 325.588 176.398 326.15C178.224 326.986 179.853 328.409 180.51 330.243C181.214 332.207 180.976 334.312 179.863 336.006C179.475 336.597 178.714 337.373 178.079 337.975C178.009 338.041 177.938 338.106 177.868 338.172C177.818 338.219 177.581 338.412 177.795 338.241C177.644 338.362 177.488 338.477 177.329 338.587C176.935 338.86 176.519 339.102 176.092 339.319C175.86 339.437 176.263 339.242 176.023 339.353C175.902 339.409 175.78 339.462 175.657 339.513C175.457 339.597 175.255 339.676 175.051 339.75C174.551 339.932 174.041 340.087 173.525 340.216C172.61 340.446 171.596 340.584 170.577 340.647C168.525 340.774 166.388 340.577 164.427 339.93C162.315 339.233 160.199 338.093 159.026 336.133C157.945 334.326 157.843 331.968 158.602 330.022C159.493 327.738 161.107 325.781 163.175 324.438C164.63 323.492 166.266 322.84 167.956 322.45C168.369 322.355 168.788 322.29 169.2 322.191C169.625 322.089 170.191 322.072 170.582 321.917C171.77 321.449 171.247 320.113 170.128 320.033Z" fill="#FB929C"/>
<path d="M246.954 359.4C247.89 361.47 249.791 363.1 251.33 364.741C252.675 366.175 254.075 367.551 255.471 368.935C256.595 370.049 258.551 369.565 259.428 368.457C264.132 362.514 268.922 356.637 273.83 350.862C274.405 350.185 274.982 349.511 275.559 348.836C276.322 347.943 277.941 346.477 277.647 345.176C277.372 343.959 275.982 343.342 274.834 343.505C274.329 343.577 273.901 343.777 273.529 344.117C273.461 344.18 273.392 344.242 273.324 344.304C273.632 343.998 273.555 344.073 273.093 344.528C272.216 345.421 271.412 346.374 270.6 347.325C267.998 350.369 265.427 353.439 262.885 356.533C260.232 359.763 257.622 363.026 255.05 366.32C256.369 366.161 257.688 366.001 259.007 365.842C257.75 364.628 256.508 363.4 255.201 362.24C253.347 360.594 251.575 358.736 249.348 357.612C248.087 356.975 246.25 357.841 246.954 359.4Z" fill="#FB929C"/>
<path d="M113.589 342.257C113.589 325.794 100.243 312.449 83.781 312.449C67.318 312.449 53.973 325.794 53.973 342.257C53.973 342.73 53.973 344.603 53.973 345.075C53.973 361.538 67.319 374.883 83.781 374.883C100.244 374.883 113.589 361.538 113.589 345.075C113.589 344.603 113.589 342.729 113.589 342.257Z" fill="#BF7525"/>
<path d="M111.817 352.392C117.421 336.912 109.415 319.821 93.9351 314.217C78.4554 308.613 61.3639 316.619 55.76 332.099C50.1562 347.578 58.1622 364.67 73.6418 370.274C89.1215 375.878 106.213 367.872 111.817 352.392Z" fill="#FECA58"/>
<path opacity="0.3" d="M83.781 312.449C83.485 312.449 83.193 312.463 82.9 312.471L53.996 341.375C53.987 341.669 53.974 341.961 53.974 342.256C53.974 347.225 55.197 351.906 57.347 356.026L97.552 315.821C93.43 313.671 88.749 312.449 83.781 312.449ZM103.408 319.832L61.357 361.883C62.617 363.322 64.013 364.637 65.525 365.811L107.335 324C106.161 322.488 104.846 321.093 103.408 319.832ZM110.776 329.615L71.138 369.253C73.808 370.506 76.693 371.371 79.724 371.783L113.306 338.201C112.894 335.17 112.029 332.284 110.776 329.615Z" fill="#FFF2C7"/>
<path d="M83.781 365.076C96.3836 365.076 106.6 354.86 106.6 342.257C106.6 329.654 96.3836 319.438 83.781 319.438C71.1784 319.438 60.962 329.654 60.962 342.257C60.962 354.86 71.1784 365.076 83.781 365.076Z" fill="url(#paint1_linear_153_1163)"/>
<path d="M83.78 365.549C70.936 365.549 60.487 355.101 60.487 342.257C60.487 329.413 70.936 318.964 83.78 318.964C96.624 318.964 107.073 329.413 107.073 342.257C107.073 355.101 96.624 365.549 83.78 365.549ZM83.78 319.911C71.459 319.911 61.435 329.936 61.435 342.257C61.435 354.578 71.459 364.602 83.78 364.602C96.101 364.602 106.126 354.579 106.126 342.257C106.126 329.936 96.102 319.911 83.78 319.911Z" fill="#BF7525"/>
<path d="M94.307 347.502C94.307 345.91 93.909 344.626 93.113 343.65C92.317 342.673 91.334 341.938 90.165 341.444C88.995 340.95 87.566 340.51 85.879 340.124V335.867C87.76 336.084 89.605 336.712 91.413 337.748L93.222 333.299V331.406C91.292 330.176 88.845 329.44 85.879 329.199V327.149V325.256H82.262V327.149V329.272C79.513 329.586 77.409 330.46 75.95 331.895C74.491 333.33 73.762 335.048 73.762 337.05C73.762 337.387 73.762 338.624 73.762 338.943C73.762 340.558 74.16 341.854 74.956 342.831C75.752 343.807 76.74 344.549 77.922 345.055C79.103 345.562 80.55 346.02 82.262 346.43V350.578C80.96 350.457 79.694 350.168 78.464 349.71C77.234 349.252 76.161 348.685 75.244 348.01L73.254 352.423V354.316C74.243 355.088 75.545 355.739 77.161 356.269C78.777 356.8 80.476 357.113 82.261 357.209V359.259V361.152H85.878V359.259V357.1C88.603 356.762 90.689 355.889 92.136 354.477C93.583 353.066 94.306 351.373 94.306 349.395C94.307 349.058 94.307 347.82 94.307 347.502ZM87.814 348.346C88.003 348.51 88.144 348.698 88.253 348.901C88.147 349.112 88.013 349.311 87.832 349.492C87.398 349.926 86.747 350.239 85.879 350.433V347.333C86.722 347.622 87.367 347.961 87.814 348.346ZM80.272 338.242C80.068 338.071 79.917 337.874 79.804 337.66C79.91 337.428 80.049 337.209 80.236 337.006C80.67 336.536 81.345 336.192 82.261 335.975V339.219C81.393 338.953 80.73 338.628 80.272 338.242Z" fill="#BF7525"/>
<path d="M92.136 352.584C90.689 353.995 88.603 354.869 85.878 355.207V359.258H82.261V355.315C80.476 355.219 78.776 354.906 77.161 354.375C75.545 353.845 74.243 353.194 73.254 352.422L75.244 348.009C76.16 348.684 77.234 349.251 78.464 349.709C79.694 350.167 80.96 350.456 82.262 350.577V344.536C80.55 344.126 79.103 343.668 77.922 343.161C76.74 342.654 75.752 341.913 74.956 340.937C74.16 339.96 73.762 338.664 73.762 337.049C73.762 335.047 74.491 333.33 75.95 331.894C77.409 330.46 79.513 329.585 82.262 329.271V325.256H85.879V329.199C88.845 329.44 91.292 330.175 93.222 331.406L91.413 335.855C89.604 334.819 87.76 334.191 85.879 333.974V340.124C87.567 340.51 88.995 340.95 90.165 341.444C91.335 341.938 92.317 342.673 93.113 343.65C93.909 344.626 94.307 345.911 94.307 347.502C94.307 349.48 93.583 351.173 92.136 352.584ZM80.272 338.242C80.73 338.628 81.393 338.953 82.261 339.219V334.082C81.344 334.299 80.67 334.643 80.236 335.113C79.802 335.583 79.585 336.132 79.585 336.759C79.585 337.362 79.813 337.857 80.272 338.242ZM87.832 349.491C88.266 349.057 88.483 348.539 88.483 347.935C88.483 347.333 88.26 346.838 87.814 346.452C87.367 346.067 86.723 345.728 85.879 345.439V350.431C86.747 350.239 87.398 349.926 87.832 349.491Z" fill="#FECA58"/>
<path opacity="0.3" d="M89.928 341.351C88.802 340.895 87.458 340.484 85.878 340.123V337.305L79.449 343.734C80.292 344.018 81.222 344.287 82.26 344.535V349.018L89.928 341.351ZM85.879 327.437V325.255H82.262V329.27C79.513 329.584 77.409 330.458 75.95 331.893C74.491 333.328 73.762 335.046 73.762 337.048C73.762 337.864 73.864 338.597 74.067 339.25L85.879 327.437ZM93.222 331.405C92.929 331.218 92.619 331.046 92.302 330.882L88.601 334.584C89.548 334.9 90.486 335.323 91.414 335.854L93.222 331.405ZM75.244 348.009L73.254 352.422C74.203 353.163 75.447 353.789 76.973 354.307L80.901 350.38C80.074 350.225 79.26 350.007 78.463 349.71C77.233 349.25 76.16 348.684 75.244 348.009ZM94.192 346.142L82.261 358.073V359.257H85.878V355.206C88.603 354.868 90.689 353.995 92.136 352.583C93.583 351.172 94.306 349.479 94.306 347.501C94.307 347.019 94.266 346.568 94.192 346.142Z" fill="#FFF2C7"/>
<path d="M56.02 381.866H113.606C114.167 381.866 114.621 381.412 114.621 380.851V374.945C114.621 374.384 114.167 373.93 113.606 373.93H56.02C55.459 373.93 55.005 374.384 55.005 374.945V380.851C55.005 381.412 55.46 381.866 56.02 381.866Z" fill="#FECA58"/>
<path d="M67.163 377.197C70.425 374.523 76.94 373.93 80.764 373.93H56.02C55.459 373.93 55.005 374.384 55.005 374.945V380.851C55.005 381.412 55.459 381.866 56.02 381.866H108.129C108.129 381.866 84.629 381.334 79.53 381.083C74.432 380.833 63.901 379.872 67.163 377.197Z" fill="#E7B02A"/>
<path d="M111.4 381.18C111.253 381.18 111.133 381.061 111.133 380.913V374.883C111.133 374.736 111.253 374.616 111.4 374.616C111.547 374.616 111.667 374.735 111.667 374.883V380.913C111.668 381.061 111.548 381.18 111.4 381.18Z" fill="#BF7525"/>
<path d="M108.077 381.18C107.93 381.18 107.81 381.061 107.81 380.913V374.883C107.81 374.736 107.93 374.616 108.077 374.616C108.224 374.616 108.344 374.735 108.344 374.883V380.913C108.344 381.061 108.224 381.18 108.077 381.18Z" fill="#BF7525"/>
<path d="M104.754 381.18C104.607 381.18 104.487 381.061 104.487 380.913V374.883C104.487 374.736 104.607 374.616 104.754 374.616C104.901 374.616 105.021 374.735 105.021 374.883V380.913C105.021 381.061 104.901 381.18 104.754 381.18Z" fill="#BF7525"/>
<path d="M101.43 381.18C101.283 381.18 101.163 381.061 101.163 380.913V374.883C101.163 374.736 101.283 374.616 101.43 374.616C101.577 374.616 101.697 374.735 101.697 374.883V380.913C101.697 381.061 101.578 381.18 101.43 381.18Z" fill="#BF7525"/>
<path d="M98.107 381.18C97.96 381.18 97.84 381.061 97.84 380.913V374.883C97.84 374.736 97.96 374.616 98.107 374.616C98.254 374.616 98.374 374.735 98.374 374.883V380.913C98.374 381.061 98.254 381.18 98.107 381.18Z" fill="#BF7525"/>
<path d="M94.783 381.18C94.636 381.18 94.516 381.061 94.516 380.913V374.883C94.516 374.736 94.636 374.616 94.783 374.616C94.93 374.616 95.05 374.735 95.05 374.883V380.913C95.05 381.061 94.931 381.18 94.783 381.18Z" fill="#BF7525"/>
<path d="M91.46 381.18C91.313 381.18 91.193 381.061 91.193 380.913V374.883C91.193 374.736 91.313 374.616 91.46 374.616C91.607 374.616 91.727 374.735 91.727 374.883V380.913C91.727 381.061 91.608 381.18 91.46 381.18Z" fill="#BF7525"/>
<path d="M88.136 381.18C87.989 381.18 87.869 381.061 87.869 380.913V374.883C87.869 374.736 87.989 374.616 88.136 374.616C88.283 374.616 88.403 374.735 88.403 374.883V380.913C88.404 381.061 88.284 381.18 88.136 381.18Z" fill="#BF7525"/>
<path d="M84.813 381.18C84.666 381.18 84.546 381.061 84.546 380.913V374.883C84.546 374.736 84.666 374.616 84.813 374.616C84.96 374.616 85.08 374.735 85.08 374.883V380.913C85.08 381.061 84.961 381.18 84.813 381.18Z" fill="#BF7525"/>
<path d="M81.49 381.18C81.343 381.18 81.223 381.061 81.223 380.913V374.883C81.223 374.736 81.343 374.616 81.49 374.616C81.637 374.616 81.757 374.735 81.757 374.883V380.913C81.757 381.061 81.637 381.18 81.49 381.18Z" fill="#BF7525"/>
<path d="M78.167 381.18C78.02 381.18 77.9 381.061 77.9 380.913V374.883C77.9 374.736 78.02 374.616 78.167 374.616C78.314 374.616 78.434 374.735 78.434 374.883V380.913C78.434 381.061 78.314 381.18 78.167 381.18Z" fill="#BF7525"/>
<path d="M74.843 381.18C74.696 381.18 74.576 381.061 74.576 380.913V374.883C74.576 374.736 74.696 374.616 74.843 374.616C74.99 374.616 75.11 374.735 75.11 374.883V380.913C75.11 381.061 74.99 381.18 74.843 381.18Z" fill="#BF7525"/>
<path d="M71.52 381.18C71.373 381.18 71.253 381.061 71.253 380.913V374.883C71.253 374.736 71.373 374.616 71.52 374.616C71.667 374.616 71.787 374.735 71.787 374.883V380.913C71.787 381.061 71.667 381.18 71.52 381.18Z" fill="#BF7525"/>
<path d="M68.196 381.18C68.049 381.18 67.929 381.061 67.929 380.913V374.883C67.929 374.736 68.049 374.616 68.196 374.616C68.343 374.616 68.463 374.735 68.463 374.883V380.913C68.464 381.061 68.344 381.18 68.196 381.18Z" fill="#BF7525"/>
<path d="M64.873 381.18C64.725 381.18 64.606 381.061 64.606 380.913V374.883C64.606 374.736 64.726 374.616 64.873 374.616C65.02 374.616 65.14 374.735 65.14 374.883V380.913C65.14 381.061 65.02 381.18 64.873 381.18Z" fill="#BF7525"/>
<path d="M61.549 381.18C61.402 381.18 61.282 381.061 61.282 380.913V374.883C61.282 374.736 61.402 374.616 61.549 374.616C61.696 374.616 61.816 374.735 61.816 374.883V380.913C61.817 381.061 61.697 381.18 61.549 381.18Z" fill="#BF7525"/>
<path d="M58.226 381.18C58.079 381.18 57.959 381.061 57.959 380.913V374.883C57.959 374.736 58.079 374.616 58.226 374.616C58.373 374.616 58.493 374.735 58.493 374.883V380.913C58.493 381.061 58.374 381.18 58.226 381.18Z" fill="#BF7525"/>
<path d="M54.203 389.803H111.789C112.35 389.803 112.804 389.349 112.804 388.788V382.882C112.804 382.321 112.349 381.867 111.789 381.867H54.203C53.642 381.867 53.188 382.321 53.188 382.882V388.788C53.188 389.349 53.642 389.803 54.203 389.803Z" fill="#FECA58"/>
<path d="M65.346 385.134C68.608 382.459 75.123 381.866 78.947 381.866H54.203C53.642 381.866 53.188 382.32 53.188 382.881V388.787C53.188 389.348 53.642 389.802 54.203 389.802H106.312C106.312 389.802 82.812 389.27 77.713 389.019C72.615 388.77 62.084 387.809 65.346 385.134Z" fill="#E7B02A"/>
<path d="M109.583 389.116C109.436 389.116 109.316 388.997 109.316 388.849V382.819C109.316 382.672 109.436 382.552 109.583 382.552C109.73 382.552 109.85 382.671 109.85 382.819V388.849C109.85 388.997 109.73 389.116 109.583 389.116Z" fill="#BF7525"/>
<path d="M106.259 389.116C106.112 389.116 105.992 388.997 105.992 388.849V382.819C105.992 382.672 106.112 382.552 106.259 382.552C106.406 382.552 106.526 382.671 106.526 382.819V388.849C106.526 388.997 106.407 389.116 106.259 389.116Z" fill="#BF7525"/>
<path d="M102.936 389.116C102.788 389.116 102.669 388.997 102.669 388.849V382.819C102.669 382.672 102.789 382.552 102.936 382.552C103.083 382.552 103.203 382.671 103.203 382.819V388.849C103.203 388.997 103.084 389.116 102.936 389.116Z" fill="#BF7525"/>
<path d="M99.612 389.116C99.465 389.116 99.345 388.997 99.345 388.849V382.819C99.345 382.672 99.465 382.552 99.612 382.552C99.76 382.552 99.879 382.671 99.879 382.819V388.849C99.88 388.997 99.76 389.116 99.612 389.116Z" fill="#BF7525"/>
<path d="M96.289 389.116C96.142 389.116 96.022 388.997 96.022 388.849V382.819C96.022 382.672 96.142 382.552 96.289 382.552C96.436 382.552 96.556 382.671 96.556 382.819V388.849C96.556 388.997 96.437 389.116 96.289 389.116Z" fill="#BF7525"/>
<path d="M92.966 389.116C92.818 389.116 92.699 388.997 92.699 388.849V382.819C92.699 382.672 92.819 382.552 92.966 382.552C93.113 382.552 93.233 382.671 93.233 382.819V388.849C93.233 388.997 93.113 389.116 92.966 389.116Z" fill="#BF7525"/>
<path d="M89.643 389.116C89.496 389.116 89.376 388.997 89.376 388.849V382.819C89.376 382.672 89.496 382.552 89.643 382.552C89.79 382.552 89.91 382.671 89.91 382.819V388.849C89.91 388.997 89.79 389.116 89.643 389.116Z" fill="#BF7525"/>
<path d="M86.319 389.116C86.172 389.116 86.052 388.997 86.052 388.849V382.819C86.052 382.672 86.172 382.552 86.319 382.552C86.466 382.552 86.586 382.671 86.586 382.819V388.849C86.586 388.997 86.466 389.116 86.319 389.116Z" fill="#BF7525"/>
<path d="M82.996 389.116C82.849 389.116 82.729 388.997 82.729 388.849V382.819C82.729 382.672 82.849 382.552 82.996 382.552C83.143 382.552 83.263 382.671 83.263 382.819V388.849C83.263 388.997 83.143 389.116 82.996 389.116Z" fill="#BF7525"/>
<path d="M79.673 389.116C79.526 389.116 79.406 388.997 79.406 388.849V382.819C79.406 382.672 79.526 382.552 79.673 382.552C79.82 382.552 79.94 382.671 79.94 382.819V388.849C79.94 388.997 79.82 389.116 79.673 389.116Z" fill="#BF7525"/>
<path d="M76.349 389.116C76.202 389.116 76.082 388.997 76.082 388.849V382.819C76.082 382.672 76.202 382.552 76.349 382.552C76.496 382.552 76.616 382.671 76.616 382.819V388.849C76.616 388.997 76.496 389.116 76.349 389.116Z" fill="#BF7525"/>
<path d="M73.026 389.116C72.879 389.116 72.759 388.997 72.759 388.849V382.819C72.759 382.672 72.879 382.552 73.026 382.552C73.173 382.552 73.293 382.671 73.293 382.819V388.849C73.293 388.997 73.173 389.116 73.026 389.116Z" fill="#BF7525"/>
<path d="M69.702 389.116C69.555 389.116 69.435 388.997 69.435 388.849V382.819C69.435 382.672 69.555 382.552 69.702 382.552C69.849 382.552 69.969 382.671 69.969 382.819V388.849C69.969 388.997 69.85 389.116 69.702 389.116Z" fill="#BF7525"/>
<path d="M66.379 389.116C66.232 389.116 66.112 388.997 66.112 388.849V382.819C66.112 382.672 66.232 382.552 66.379 382.552C66.526 382.552 66.646 382.671 66.646 382.819V388.849C66.646 388.997 66.526 389.116 66.379 389.116Z" fill="#BF7525"/>
<path d="M63.055 389.116C62.908 389.116 62.788 388.997 62.788 388.849V382.819C62.788 382.672 62.908 382.552 63.055 382.552C63.202 382.552 63.322 382.671 63.322 382.819V388.849C63.322 388.997 63.203 389.116 63.055 389.116Z" fill="#BF7525"/>
<path d="M59.732 389.116C59.584 389.116 59.465 388.997 59.465 388.849V382.819C59.465 382.672 59.585 382.552 59.732 382.552C59.879 382.552 59.999 382.671 59.999 382.819V388.849C59.999 388.997 59.88 389.116 59.732 389.116Z" fill="#BF7525"/>
<path d="M56.408 389.116C56.261 389.116 56.141 388.997 56.141 388.849V382.819C56.141 382.672 56.261 382.552 56.408 382.552C56.556 382.552 56.675 382.671 56.675 382.819V388.849C56.675 388.997 56.556 389.116 56.408 389.116Z" fill="#BF7525"/>
<path d="M57.725 397.74H115.311C115.872 397.74 116.326 397.286 116.326 396.725V390.819C116.326 390.258 115.872 389.804 115.311 389.804H57.725C57.164 389.804 56.71 390.258 56.71 390.819V396.725C56.71 397.285 57.165 397.74 57.725 397.74Z" fill="#FECA58"/>
<path d="M68.868 393.07C72.13 390.395 78.645 389.803 82.469 389.803H57.725C57.164 389.803 56.71 390.257 56.71 390.818V396.724C56.71 397.285 57.165 397.739 57.725 397.739H109.834C109.834 397.739 86.334 397.207 81.235 396.956C76.137 396.706 65.606 395.745 68.868 393.07Z" fill="#E7B02A"/>
<path d="M113.105 397.053C112.958 397.053 112.838 396.934 112.838 396.786V390.756C112.838 390.609 112.958 390.489 113.105 390.489C113.252 390.489 113.372 390.608 113.372 390.756V396.786C113.372 396.934 113.253 397.053 113.105 397.053Z" fill="#BF7525"/>
<path d="M109.782 397.053C109.635 397.053 109.515 396.934 109.515 396.786V390.756C109.515 390.609 109.635 390.489 109.782 390.489C109.929 390.489 110.049 390.608 110.049 390.756V396.786C110.049 396.934 109.929 397.053 109.782 397.053Z" fill="#BF7525"/>
<path d="M106.459 397.053C106.312 397.053 106.192 396.934 106.192 396.786V390.756C106.192 390.609 106.312 390.489 106.459 390.489C106.606 390.489 106.726 390.608 106.726 390.756V396.786C106.726 396.934 106.606 397.053 106.459 397.053Z" fill="#BF7525"/>
<path d="M103.135 397.053C102.987 397.053 102.868 396.934 102.868 396.786V390.756C102.868 390.609 102.988 390.489 103.135 390.489C103.282 390.489 103.402 390.608 103.402 390.756V396.786C103.402 396.934 103.282 397.053 103.135 397.053Z" fill="#BF7525"/>
<path d="M99.8119 397.053C99.6649 397.053 99.5449 396.934 99.5449 396.786V390.756C99.5449 390.609 99.6649 390.489 99.8119 390.489C99.9589 390.489 100.079 390.608 100.079 390.756V396.786C100.079 396.934 99.9589 397.053 99.8119 397.053Z" fill="#BF7525"/>
<path d="M96.4879 397.053C96.3409 397.053 96.2209 396.934 96.2209 396.786V390.756C96.2209 390.609 96.3409 390.489 96.4879 390.489C96.6349 390.489 96.7549 390.608 96.7549 390.756V396.786C96.7559 396.934 96.6359 397.053 96.4879 397.053Z" fill="#BF7525"/>
<path d="M93.1649 397.053C93.0169 397.053 92.8979 396.934 92.8979 396.786V390.756C92.8979 390.609 93.0179 390.489 93.1649 390.489C93.3119 390.489 93.4319 390.608 93.4319 390.756V396.786C93.4319 396.934 93.3119 397.053 93.1649 397.053Z" fill="#BF7525"/>
<path d="M89.8409 397.053C89.6939 397.053 89.5739 396.934 89.5739 396.786V390.756C89.5739 390.609 89.6939 390.489 89.8409 390.489C89.9879 390.489 90.1079 390.608 90.1079 390.756V396.786C90.1079 396.934 89.9889 397.053 89.8409 397.053Z" fill="#BF7525"/>
<path d="M86.5179 397.053C86.3709 397.053 86.2509 396.934 86.2509 396.786V390.756C86.2509 390.609 86.3709 390.489 86.5179 390.489C86.6649 390.489 86.7849 390.608 86.7849 390.756V396.786C86.7849 396.934 86.6659 397.053 86.5179 397.053Z" fill="#BF7525"/>
<path d="M83.1949 397.053C83.0479 397.053 82.9279 396.934 82.9279 396.786V390.756C82.9279 390.609 83.0479 390.489 83.1949 390.489C83.3419 390.489 83.4619 390.608 83.4619 390.756V396.786C83.4619 396.934 83.3419 397.053 83.1949 397.053Z" fill="#BF7525"/>
<path d="M79.8709 397.053C79.7239 397.053 79.6039 396.934 79.6039 396.786V390.756C79.6039 390.609 79.7239 390.489 79.8709 390.489C80.0179 390.489 80.1379 390.608 80.1379 390.756V396.786C80.1379 396.934 80.0189 397.053 79.8709 397.053Z" fill="#BF7525"/>
<path d="M76.5479 397.053C76.4009 397.053 76.2809 396.934 76.2809 396.786V390.756C76.2809 390.609 76.4009 390.489 76.5479 390.489C76.6949 390.489 76.8149 390.608 76.8149 390.756V396.786C76.8149 396.934 76.6949 397.053 76.5479 397.053Z" fill="#BF7525"/>
<path d="M73.2249 397.053C73.0779 397.053 72.9579 396.934 72.9579 396.786V390.756C72.9579 390.609 73.0779 390.489 73.2249 390.489C73.3719 390.489 73.4919 390.608 73.4919 390.756V396.786C73.4919 396.934 73.3719 397.053 73.2249 397.053Z" fill="#BF7525"/>
<path d="M69.9009 397.053C69.7539 397.053 69.6339 396.934 69.6339 396.786V390.756C69.6339 390.609 69.7539 390.489 69.9009 390.489C70.0479 390.489 70.1679 390.608 70.1679 390.756V396.786C70.1679 396.934 70.0479 397.053 69.9009 397.053Z" fill="#BF7525"/>
<path d="M66.5779 397.053C66.4309 397.053 66.3109 396.934 66.3109 396.786V390.756C66.3109 390.609 66.4309 390.489 66.5779 390.489C66.7249 390.489 66.8449 390.608 66.8449 390.756V396.786C66.8449 396.934 66.7249 397.053 66.5779 397.053Z" fill="#BF7525"/>
<path d="M63.2549 397.053C63.1079 397.053 62.9879 396.934 62.9879 396.786V390.756C62.9879 390.609 63.1079 390.489 63.2549 390.489C63.4019 390.489 63.5219 390.608 63.5219 390.756V396.786C63.5219 396.934 63.4019 397.053 63.2549 397.053Z" fill="#BF7525"/>
<path d="M59.9309 397.053C59.7829 397.053 59.6639 396.934 59.6639 396.786V390.756C59.6639 390.609 59.7839 390.489 59.9309 390.489C60.0779 390.489 60.1979 390.608 60.1979 390.756V396.786C60.1979 396.934 60.0779 397.053 59.9309 397.053Z" fill="#BF7525"/>
<path d="M54.988 405.676H112.574C113.135 405.676 113.589 405.222 113.589 404.661V398.755C113.589 398.194 113.135 397.74 112.574 397.74H54.988C54.427 397.74 53.973 398.194 53.973 398.755V404.661C53.972 405.221 54.427 405.676 54.988 405.676Z" fill="#FECA58"/>
<path d="M66.131 401.007C69.393 398.332 75.908 397.74 79.732 397.74H54.987C54.426 397.74 53.972 398.194 53.972 398.755V404.661C53.972 405.222 54.426 405.676 54.987 405.676H107.096C107.096 405.676 83.596 405.144 78.497 404.893C73.4 404.643 62.868 403.681 66.131 401.007Z" fill="#E7B02A"/>
<path d="M110.368 404.99C110.221 404.99 110.101 404.871 110.101 404.723V398.693C110.101 398.546 110.221 398.426 110.368 398.426C110.515 398.426 110.635 398.545 110.635 398.693V404.723C110.635 404.87 110.515 404.99 110.368 404.99Z" fill="#BF7525"/>
<path d="M107.045 404.99C106.898 404.99 106.778 404.871 106.778 404.723V398.693C106.778 398.546 106.898 398.426 107.045 398.426C107.192 398.426 107.312 398.545 107.312 398.693V404.723C107.312 404.87 107.192 404.99 107.045 404.99Z" fill="#BF7525"/>
<path d="M103.721 404.99C103.574 404.99 103.454 404.871 103.454 404.723V398.693C103.454 398.546 103.574 398.426 103.721 398.426C103.868 398.426 103.988 398.545 103.988 398.693V404.723C103.988 404.87 103.868 404.99 103.721 404.99Z" fill="#BF7525"/>
<path d="M100.398 404.99C100.251 404.99 100.131 404.871 100.131 404.723V398.693C100.131 398.546 100.251 398.426 100.398 398.426C100.545 398.426 100.665 398.545 100.665 398.693V404.723C100.665 404.87 100.545 404.99 100.398 404.99Z" fill="#BF7525"/>
<path d="M97.074 404.99C96.927 404.99 96.807 404.871 96.807 404.723V398.693C96.807 398.546 96.927 398.426 97.074 398.426C97.221 398.426 97.341 398.545 97.341 398.693V404.723C97.341 404.87 97.222 404.99 97.074 404.99Z" fill="#BF7525"/>
<path d="M93.751 404.99C93.604 404.99 93.484 404.871 93.484 404.723V398.693C93.484 398.546 93.604 398.426 93.751 398.426C93.898 398.426 94.018 398.545 94.018 398.693V404.723C94.018 404.87 93.898 404.99 93.751 404.99Z" fill="#BF7525"/>
<path d="M90.427 404.99C90.28 404.99 90.16 404.871 90.16 404.723V398.693C90.16 398.546 90.28 398.426 90.427 398.426C90.574 398.426 90.694 398.545 90.694 398.693V404.723C90.695 404.87 90.575 404.99 90.427 404.99Z" fill="#BF7525"/>
<path d="M87.104 404.99C86.957 404.99 86.837 404.871 86.837 404.723V398.693C86.837 398.546 86.957 398.426 87.104 398.426C87.251 398.426 87.371 398.545 87.371 398.693V404.723C87.371 404.87 87.252 404.99 87.104 404.99Z" fill="#BF7525"/>
<path d="M83.78 404.99C83.633 404.99 83.513 404.871 83.513 404.723V398.693C83.513 398.546 83.633 398.426 83.78 398.426C83.927 398.426 84.047 398.545 84.047 398.693V404.723C84.048 404.87 83.928 404.99 83.78 404.99Z" fill="#BF7525"/>
<path d="M80.457 404.99C80.31 404.99 80.19 404.871 80.19 404.723V398.693C80.19 398.546 80.31 398.426 80.457 398.426C80.604 398.426 80.724 398.545 80.724 398.693V404.723C80.724 404.87 80.605 404.99 80.457 404.99Z" fill="#BF7525"/>
<path d="M77.134 404.99C76.987 404.99 76.867 404.871 76.867 404.723V398.693C76.867 398.546 76.987 398.426 77.134 398.426C77.281 398.426 77.401 398.545 77.401 398.693V404.723C77.401 404.87 77.281 404.99 77.134 404.99Z" fill="#BF7525"/>
<path d="M73.81 404.99C73.663 404.99 73.543 404.871 73.543 404.723V398.693C73.543 398.546 73.663 398.426 73.81 398.426C73.957 398.426 74.077 398.545 74.077 398.693V404.723C74.077 404.87 73.958 404.99 73.81 404.99Z" fill="#BF7525"/>
<path d="M70.487 404.99C70.34 404.99 70.22 404.871 70.22 404.723V398.693C70.22 398.546 70.34 398.426 70.487 398.426C70.634 398.426 70.754 398.545 70.754 398.693V404.723C70.754 404.87 70.634 404.99 70.487 404.99Z" fill="#BF7525"/>
<path d="M67.164 404.99C67.017 404.99 66.897 404.871 66.897 404.723V398.693C66.897 398.546 67.017 398.426 67.164 398.426C67.312 398.426 67.431 398.545 67.431 398.693V404.723C67.431 404.87 67.311 404.99 67.164 404.99Z" fill="#BF7525"/>
<path d="M63.84 404.99C63.693 404.99 63.573 404.871 63.573 404.723V398.693C63.573 398.546 63.693 398.426 63.84 398.426C63.987 398.426 64.107 398.545 64.107 398.693V404.723C64.107 404.87 63.987 404.99 63.84 404.99Z" fill="#BF7525"/>
<path d="M60.517 404.99C60.37 404.99 60.25 404.871 60.25 404.723V398.693C60.25 398.546 60.37 398.426 60.517 398.426C60.664 398.426 60.784 398.545 60.784 398.693V404.723C60.784 404.87 60.664 404.99 60.517 404.99Z" fill="#BF7525"/>
<path d="M57.194 404.99C57.047 404.99 56.927 404.871 56.927 404.723V398.693C56.927 398.546 57.047 398.426 57.194 398.426C57.341 398.426 57.461 398.545 57.461 398.693V404.723C57.461 404.87 57.341 404.99 57.194 404.99Z" fill="#BF7525"/>
<path d="M104.696 373.809C89.643 373.661 72.754 373.704 57.701 373.931C72.755 374.08 89.643 374.035 104.696 373.809Z" fill="#FFF2C7"/>
<path d="M105.32 381.866C90.266 381.718 73.378 381.64 58.325 381.868C73.378 382.017 90.267 382.092 105.32 381.866Z" fill="#FFF2C7"/>
<path d="M102.444 389.803C87.391 389.655 70.502 389.577 55.449 389.804C70.503 389.954 87.392 390.029 102.444 389.803Z" fill="#FFF2C7"/>
<path d="M105.966 397.74C90.913 397.592 74.024 397.514 58.971 397.741C74.025 397.89 90.914 397.965 105.966 397.74Z" fill="#FFF2C7"/>
<path d="M99.327 405.676C84.274 405.528 70.04 405.45 54.988 405.677C70.041 405.827 84.274 405.902 99.327 405.676Z" fill="#FFF2C7"/>
<path d="M102.431 324.174H100.758C100.012 324.174 99.406 323.569 99.406 322.822V320.692C99.406 320.286 99.128 319.909 98.727 319.843C98.216 319.76 97.774 320.152 97.774 320.648V322.822C97.774 323.568 97.169 324.174 96.422 324.174H94.749C94.342 324.174 93.966 324.452 93.9 324.853C93.817 325.364 94.209 325.806 94.705 325.806H96.422C97.168 325.806 97.774 326.411 97.774 327.158V329.288C97.774 329.695 98.052 330.071 98.453 330.137C98.964 330.22 99.406 329.828 99.406 329.332V327.159C99.406 326.413 100.011 325.807 100.758 325.807H102.475C102.971 325.807 103.363 325.365 103.28 324.854C103.214 324.451 102.837 324.174 102.431 324.174Z" fill="white"/>
<path d="M107.845 329.457H106.817C106.186 329.457 105.675 328.946 105.675 328.315V327.287C105.675 326.944 105.44 326.625 105.101 326.57C104.669 326.5 104.296 326.831 104.296 327.25V328.315C104.296 328.946 103.785 329.457 103.154 329.457H102.126C101.783 329.457 101.464 329.692 101.409 330.031C101.339 330.463 101.67 330.836 102.089 330.836H103.154C103.785 330.836 104.296 331.347 104.296 331.978V333.006C104.296 333.35 104.531 333.668 104.87 333.723C105.302 333.793 105.675 333.462 105.675 333.043V331.978C105.675 331.347 106.186 330.836 106.817 330.836H107.882C108.301 330.836 108.632 330.463 108.562 330.031C108.506 329.692 108.188 329.457 107.845 329.457Z" fill="white"/>
<path d="M272.167 77.1801H128.385C124.31 77.1801 121.006 80.4831 121.006 84.5591V139.791C121.006 143.866 124.31 147.17 128.385 147.17H146.129C147.244 147.17 148.255 147.824 148.713 148.84L156.444 166C156.81 166.812 157.963 166.812 158.328 166L166.059 148.839C166.517 147.822 167.528 147.169 168.643 147.169H272.167C276.242 147.169 279.546 143.866 279.546 139.79V84.5591C279.546 80.4831 276.242 77.1801 272.167 77.1801Z" fill="white"/>
<path d="M157.385 167.557C156.595 167.557 155.903 167.11 155.579 166.389L147.849 149.228C147.545 148.553 146.869 148.117 146.129 148.117H128.385C123.794 148.117 120.059 144.382 120.059 139.79V84.5581C120.059 79.9671 123.794 76.2321 128.385 76.2321H272.168C276.759 76.2321 280.494 79.9671 280.494 84.5581V139.79C280.494 144.381 276.759 148.117 272.168 148.117H168.643C167.902 148.117 167.227 148.553 166.923 149.228L159.192 166.389C158.867 167.11 158.175 167.557 157.385 167.557ZM128.384 78.1281C124.838 78.1281 121.953 81.0131 121.953 84.5591V139.791C121.953 143.337 124.838 146.222 128.384 146.222H146.128C147.613 146.222 148.967 147.096 149.577 148.451L157.307 165.612H157.463L165.194 148.451C165.804 147.097 167.158 146.222 168.643 146.222H272.167C275.713 146.222 278.598 143.337 278.598 139.791V84.5581C278.598 81.0121 275.713 78.1271 272.167 78.1271L128.384 78.1281Z" fill="#DEEDFE"/>
<path d="M184.113 117.744C187.195 104.529 178.979 91.3172 165.764 88.2356C152.549 85.1539 139.337 93.369 136.255 106.584C133.174 119.8 141.389 133.011 154.604 136.093C167.82 139.175 181.031 130.96 184.113 117.744Z" fill="white"/>
<path d="M160.186 93.291C170.599 93.291 179.07 101.762 179.07 112.175C179.07 122.588 170.599 131.059 160.186 131.059C149.773 131.059 141.302 122.588 141.302 112.175C141.302 101.762 149.773 93.291 160.186 93.291ZM160.186 87.605C146.616 87.605 135.616 98.605 135.616 112.175C135.616 125.745 146.616 136.745 160.186 136.745C173.756 136.745 184.756 125.745 184.756 112.175C184.756 98.605 173.756 87.605 160.186 87.605Z" fill="#FA5B7E"/>
<path d="M160.186 114.868C161.673 114.868 162.879 113.662 162.879 112.175C162.879 110.688 161.673 109.482 160.186 109.482C158.699 109.482 157.493 110.688 157.493 112.175C157.493 113.662 158.699 114.868 160.186 114.868Z" fill="#18185E"/>
<path d="M160.186 112.886C160.055 112.886 159.925 112.85 159.81 112.779C159.602 112.649 159.475 112.421 159.475 112.175V98.253C159.475 97.86 159.793 97.542 160.186 97.542C160.579 97.542 160.897 97.86 160.897 98.253V111.032L169.511 106.788C169.863 106.615 170.289 106.759 170.463 107.112C170.636 107.464 170.492 107.89 170.139 108.064L160.5 112.813C160.401 112.861 160.294 112.886 160.186 112.886Z" fill="#18185E"/>
<path d="M257.125 94.629H210.85V100.738H257.125V94.629Z" fill="#6C63FF"/>
<path d="M267.277 110.399H200.699C199.914 110.399 199.277 109.763 199.277 108.977C199.277 108.192 199.913 107.555 200.699 107.555H267.277C268.062 107.555 268.699 108.191 268.699 108.977C268.698 109.763 268.062 110.399 267.277 110.399Z" fill="#DEEDFE"/>
<path d="M267.277 120.06H200.699C199.914 120.06 199.277 119.424 199.277 118.638C199.277 117.853 199.913 117.216 200.699 117.216H267.277C268.062 117.216 268.699 117.852 268.699 118.638C268.698 119.423 268.062 120.06 267.277 120.06Z" fill="#DEEDFE"/>
<path d="M267.277 129.72H200.699C199.914 129.72 199.277 129.083 199.277 128.298C199.277 127.513 199.913 126.876 200.699 126.876H267.277C268.062 126.876 268.699 127.512 268.699 128.298C268.698 129.084 268.062 129.72 267.277 129.72Z" fill="#DEEDFE"/>
<path d="M621.192 143.499C641.589 134.297 653.066 150.094 655.237 159.204C657.409 168.314 654.755 171.01 659.339 176.9C663.923 182.79 670.317 191.489 663.32 204.27C656.323 217.051 641.068 218.498 629.032 217.654C616.996 216.81 596.196 204.477 603.917 188.196C601.022 191.096 600.901 196.061 600.901 196.061C600.901 196.061 599.212 193.152 600.901 187.781C602.59 182.41 606.195 180.724 607.643 176.119C609.091 171.514 607.104 169.62 605.897 163.418C604.691 157.216 606.481 151.061 609.83 147.337C612.571 144.286 617.618 142.274 621.192 143.499Z" fill="url(#paint2_linear_153_1163)"/>
<path d="M646.758 149.812C649.508 151.496 651.311 154.277 652.295 157.301C653.449 160.847 653.492 164.605 653.39 168.296C653.338 170.19 653.271 172.104 653.583 173.981C653.864 175.672 654.502 177.234 655.385 178.697C657.017 181.403 659.269 183.715 660.647 186.578C662.316 190.044 662.574 194.161 661.188 197.757C661.145 197.869 661.021 197.81 661.051 197.701C661.981 194.38 661.936 190.779 660.619 187.569C659.39 184.575 657.139 182.194 655.415 179.496C654.557 178.154 653.843 176.717 653.466 175.162C653.039 173.4 653.006 171.57 653.045 169.766C653.124 166.065 653.292 162.348 652.422 158.716C651.595 155.265 649.739 151.893 646.755 149.861C646.738 149.851 646.733 149.797 646.758 149.812Z" fill="#6C63FF"/>
<path d="M650.896 175.52C651.239 177.089 651.826 178.561 652.687 179.919C653.519 181.232 654.51 182.436 655.352 183.742C656.982 186.271 657.862 189.228 657.947 192.233C657.995 193.916 657.781 195.649 657.194 197.232C657.162 197.319 657.091 197.233 657.103 197.172C657.652 194.176 657.75 191.17 656.902 188.215C656.498 186.807 655.914 185.441 655.16 184.184C654.383 182.887 653.442 181.698 652.636 180.42C651.692 178.921 651.004 177.299 650.85 175.519C650.847 175.48 650.888 175.486 650.896 175.52Z" fill="#6C63FF"/>
<path d="M617.728 223.202C617.728 223.202 611.604 246.851 605.468 252.234C599.332 257.617 584.651 258.506 564.114 258.285C560.223 249.859 564.905 243.301 564.905 243.301C571.2 242.629 588.851 238.432 591.393 235.888C593.935 233.344 596.279 224.115 600.151 213.904C604.819 201.593 605.717 197.982 615.398 197.172L617.728 223.202Z" fill="url(#paint3_linear_153_1163)"/>
<path d="M571.117 426.084L538.032 218.893C537.789 217.336 537.682 215.76 537.73 214.193C537.759 212.617 537.944 211.04 538.295 209.483L545.69 175.259H545.7C547.948 175.6 550.264 175.6 552.609 175.23C554.954 174.85 557.153 174.121 559.187 173.099L576.936 203.401C577.715 204.754 578.366 206.155 578.892 207.615C579.408 209.055 579.787 210.554 580.05 212.062L613.145 419.37C614.459 427.593 572.431 434.307 571.117 426.084Z" fill="#FFF2C7"/>
<path d="M552.611 175.229C554.957 174.854 557.162 174.123 559.196 173.104L553.225 162.907C551.904 160.651 548.742 161.156 548.189 163.711L545.691 175.26C547.942 175.596 550.266 175.604 552.611 175.229Z" fill="#FB929C"/>
<path d="M571.118 426.081L538.034 218.889C537.787 217.335 537.683 215.762 537.731 214.198C551.946 215.098 565.669 212.909 578.889 207.612C579.41 209.053 579.789 210.55 580.045 212.066L613.148 419.372C614.456 427.588 572.426 434.307 571.118 426.081Z" fill="#FECA58"/>
<path d="M613.148 419.372L588.629 265.823C596.564 315.517 607.017 380.981 590.147 404.937C577.764 422.521 566.749 398.741 566.749 398.741L571.115 426.084C572.428 434.303 614.46 427.591 613.148 419.372Z" fill="#E7B02A"/>
<path d="M551.33 214.098C551.089 214.116 550.861 214.141 550.616 214.156C550.855 214.14 551.092 214.117 551.33 214.098Z" fill="#FB929C"/>
<path d="M582.06 418.567C581.688 418.567 581.36 418.296 581.299 417.918L550.676 226.136C550.609 225.716 550.896 225.32 551.316 225.253C551.749 225.189 552.132 225.473 552.2 225.893L582.823 417.674C582.89 418.095 582.603 418.49 582.183 418.558C582.141 418.564 582.1 418.567 582.06 418.567Z" fill="#E7B02A"/>
<path d="M600.165 415.675C599.793 415.675 599.465 415.404 599.404 415.026L568.78 223.245C568.713 222.824 569 222.429 569.42 222.362C569.852 222.299 570.236 222.582 570.304 223.002L600.928 414.782C600.995 415.203 600.708 415.598 600.288 415.666C600.246 415.672 600.205 415.675 600.165 415.675Z" fill="#E7B02A"/>
<path d="M541.423 240.131C539.944 239.94 538.749 241.109 538.373 243.968C537.939 247.264 537.14 247.579 536.798 250.419C536.456 253.259 538.738 262.042 540.626 263.582C541.808 264.545 544.059 265.701 545.182 264.005C545.714 263.202 545.612 262.141 545.94 261.236C546.056 260.916 546.225 260.617 546.322 260.291C546.588 259.389 546.265 258.435 546.058 257.518C545.851 256.601 545.809 255.513 546.479 254.854C546.649 254.687 546.854 254.56 547.023 254.392C547.556 253.86 547.628 253.015 547.505 252.272C547.194 250.386 545.917 249.085 544.898 247.566C544.418 246.85 543.801 246.294 543.137 245.726C542.992 245.602 542.185 245.118 542.156 244.928C542.155 244.922 541.423 240.131 541.423 240.131Z" fill="#D18080"/>
<path d="M678.433 420.221C679.069 423.218 679.876 425.898 680.877 428.768C682.596 433.7 684.867 439.597 682.419 445.033C681.279 447.564 678.636 450.043 676.119 451.335C673.744 452.554 670.883 452.72 668.9 450.596C668.236 449.885 667.77 449.007 667.369 448.114C665.751 444.511 665.41 440.863 665.332 436.964C665.247 432.719 665.157 428.474 665.05 424.23C665.025 423.24 664.989 422.251 664.915 421.263C665.826 420.776 666.643 420.614 667.632 420.324C669.459 419.788 671.293 419.258 673.169 418.93C673.924 418.798 675.235 418.304 675.994 418.213C676.648 418.134 677.044 417.955 677.579 417.798C677.803 417.732 678.072 418.517 678.433 420.221Z" fill="#18185E"/>
<path d="M667.452 440.322C668.663 443.266 673.615 443.06 676.461 440.684C678.648 438.858 679.364 437.441 679.895 434.641C680.201 433.024 680.058 428.531 679.274 426.039C678.49 423.547 678.171 420.519 677.993 418.482C677.765 415.857 677.443 410.703 677.443 410.703L663.099 413.363C663.099 413.363 664.507 418.864 665.115 422.693C665.869 427.442 666.079 431.547 666.236 433.663C666.391 435.779 666.592 438.233 667.452 440.322Z" fill="#D18080"/>
<path d="M625.34 414.406C626.225 416.427 626.949 418.548 627.119 420.747C627.447 424.983 625.711 429.118 625.561 433.365C625.545 433.811 625.678 434.893 625.346 435.235C625 435.591 623.761 435.529 623.307 435.507C623.225 435.503 623.137 435.495 623.072 435.445C622.974 435.369 622.962 435.229 622.957 435.105C622.896 433.551 622.809 431.086 621.385 430.102C621.293 430.038 621.193 429.98 621.083 429.965C620.956 429.947 620.828 429.987 620.709 430.035C620.085 430.289 619.594 430.782 619.131 431.271C616.855 433.673 614.956 436.353 612.27 438.34C610.804 439.424 609.183 440.359 607.421 440.862C604.38 441.73 601.186 442.19 598.044 441.825C595.333 441.51 591.275 440.062 592.82 436.575C593.076 435.998 593.478 435.501 593.876 435.011C595.213 433.365 596.727 431.876 598.193 430.342C599.308 429.179 600.424 428.015 601.54 426.852C603.579 424.725 605.974 422.927 608.21 421.003C610.834 418.745 613.457 416.488 616.081 414.23C616.966 413.469 617.946 412.42 619.091 412.158C620.402 411.858 621.701 411.791 623.033 411.956C624.303 412.113 624.805 413.195 625.292 414.298C625.309 414.334 625.324 414.37 625.34 414.406Z" fill="#18185E"/>
<path d="M607.078 419.067C605.407 422.78 602.709 426.055 600.176 429.299C599.739 429.858 598.667 431.117 599.051 431.897C599.459 432.724 601.275 432.659 602.002 432.596C605.079 432.329 608.036 431.21 610.692 429.668C613.67 427.939 616.307 425.683 618.826 423.336C621.347 420.988 624.035 417.992 624.474 414.41C624.552 413.778 624.502 413.138 624.441 412.504C624.305 411.091 624.575 407.724 624.758 406.316C625.07 403.91 608.631 404.177 608.679 410.992C608.69 412.607 608.612 414.22 608.224 415.786C607.945 416.92 607.553 418.011 607.078 419.067Z" fill="#D18080"/>
<path d="M603.821 256.495C602.292 268.579 603.566 324.969 603.821 345.108C604.076 365.247 608.153 409.118 608.153 409.118C608.153 409.118 610.25 411.157 616.62 410.92C622.99 410.683 625.809 408.758 625.809 408.758C625.809 408.758 630.32 380.886 631.085 370.698C631.849 360.51 630.371 357.257 631.645 347.274C632.919 337.291 635.85 321.531 635.85 321.531C635.85 321.531 643.234 351.979 645.527 360.035C647.82 368.091 661.656 414.771 661.656 414.771C661.656 414.771 664.964 416.756 670.627 415.735C674.888 414.967 678.231 412.727 678.231 412.727C678.231 412.727 678.732 383.966 677.204 369.513C675.675 355.06 671.344 350.558 670.834 343.924C670.324 337.29 670.461 309.618 669.709 292.983C668.957 276.348 654.781 256.495 654.781 256.495H603.821Z" fill="url(#paint4_linear_153_1163)"/>
<path d="M635.849 321.529C631.521 307.328 627.495 294.412 627.495 294.412C627.495 294.412 621.021 294.779 613.595 290.103C616.393 295.48 624.413 297.821 624.413 297.821L633.735 324.549L632.844 339.006L635.849 321.529Z" fill="#313180"/>
<path d="M622.154 196.524H644.809L661.202 202.172C661.202 202.172 654.442 240.028 653.367 245.759C652.291 251.489 651.595 254.527 654.401 258.693C657.207 262.859 659.512 267.621 659.512 267.621C659.512 267.621 644.763 275.456 628.478 275.149C612.192 274.842 604.818 270.233 604.818 270.233C604.818 270.233 606.354 253.112 606.662 244.926C606.969 236.74 605.372 233.387 605.402 228.15C605.432 222.913 604.664 219.994 609.581 210.315C614.497 200.636 616.341 197.818 616.341 197.818L622.154 196.524Z" fill="url(#paint5_linear_153_1163)"/>
<path d="M654.401 258.693C651.746 254.753 652.227 251.818 653.197 246.662L635.872 232.789C635.872 232.789 635.271 257.473 628.878 264.195C624.065 269.256 616.798 270.68 606.189 266.566L605.073 267.308C604.918 269.11 604.818 270.233 604.818 270.233C604.818 270.233 612.193 274.842 628.478 275.149C644.763 275.456 659.512 267.621 659.512 267.621C659.512 267.621 657.208 262.858 654.401 258.693Z" fill="#6C63FF"/>
<path d="M621.413 153.907C620.956 152.736 620.267 151.536 619.065 151.567C617.395 151.61 615.881 152.785 614.911 154.069C613.859 155.463 613.158 157.133 612.643 158.792C611.471 162.571 611 166.471 610.997 170.404C610.994 173.332 611.354 179.298 612.458 182.067C614.665 187.607 620.353 188.994 624.64 189.098C624.557 193.088 625.194 195.767 622.41 196.074C620.2 199.709 620.483 203.587 626.704 204.815C632.925 206.043 643.523 203.501 644.808 196.539C641.698 195.717 641.052 192.503 641.091 187.79C641.133 182.786 641.165 178.827 641.165 178.827C641.165 178.827 644.122 179.788 647.089 176.118C650.175 172.303 650.053 165.742 645.771 164.598C642.437 163.708 640.878 165.824 639.963 168.409C639.662 169.258 638.775 169.851 637.875 169.537C636.766 169.149 636.272 168.33 635.605 167.458C635.022 166.695 634.142 166.451 633.228 166.203C631.039 165.609 628.822 164.909 627.015 163.538C624.399 161.554 622.952 158.407 621.894 155.299C621.763 154.907 621.61 154.41 621.413 153.907Z" fill="#D18080"/>
<path d="M624.641 189.098C627.06 189.196 633.61 188.778 637.222 184.695C636.1 189.447 630.438 191.627 624.641 191.934V189.098Z" fill="url(#paint6_linear_153_1163)"/>
<path d="M620.589 165.794C620.683 165.931 620.695 166.343 620.657 166.528C620.587 166.87 620.461 167.198 620.339 167.523C619.679 169.282 619.078 171.063 618.536 172.862C618.348 173.487 618.215 174.097 618.881 174.469C619.099 174.591 619.345 174.652 619.589 174.703C620.283 174.848 620.992 174.92 621.701 174.917C621.971 174.916 622.673 175.115 622.268 175.458C621.963 175.717 621.201 175.577 620.84 175.559C620.34 175.534 619.844 175.465 619.357 175.345C618.819 175.213 618.157 175.043 617.835 174.55C617.55 174.114 617.655 173.58 617.782 173.11C618.154 171.732 618.603 170.373 619.09 169.032C619.458 168.018 619.819 166.964 620.302 165.999C620.436 165.731 620.529 165.706 620.589 165.794Z" fill="#B55D5D"/>
<path d="M627.481 177.822C627.479 177.831 627.476 177.84 627.472 177.85C627.414 178.017 627.283 178.185 627.179 178.326C626.969 178.613 626.715 178.867 626.436 179.088C625.911 179.502 625.293 179.803 624.649 179.982C624.05 180.149 623.429 180.194 622.829 180.123C622.438 180.077 622.035 180.018 621.676 179.846C621.539 179.781 621.257 179.644 621.202 179.488C621.14 179.312 621.324 179.152 621.483 179.154C622.035 179.16 622.564 179.363 623.116 179.394C624.543 179.473 625.902 178.854 626.916 177.88C626.998 177.801 627.08 177.719 627.182 177.668C627.368 177.577 627.535 177.622 627.481 177.822Z" fill="#B55D5D"/>
<path d="M629.356 167.581C629.269 168.602 628.509 169.375 627.66 169.309C626.811 169.243 626.193 168.362 626.28 167.341C626.367 166.32 627.127 165.547 627.976 165.613C628.825 165.68 629.443 166.561 629.356 167.581Z" fill="#18185E"/>
<path d="M616.855 166.947C616.768 167.968 616.008 168.741 615.159 168.675C614.31 168.609 613.692 167.728 613.779 166.707C613.866 165.686 614.626 164.913 615.475 164.979C616.325 165.046 616.943 165.927 616.855 166.947Z" fill="#18185E"/>
<path d="M631.093 163.971C631.007 163.784 630.95 163.603 630.843 163.421C630.711 163.197 630.575 162.956 630.417 162.75C630.125 162.367 629.678 162.035 629.237 161.844C628.86 161.681 628.497 161.574 628.089 161.527C627.893 161.504 627.697 161.492 627.499 161.499C627.215 161.51 626.95 161.586 626.713 161.375C626.531 161.212 626.477 160.925 626.634 160.727C626.764 160.564 627.106 160.484 627.304 160.471C627.414 160.464 627.524 160.461 627.633 160.462C627.883 160.465 628.131 160.48 628.377 160.522C628.892 160.61 629.422 160.774 629.858 161.069C630.421 161.449 630.884 161.989 631.118 162.632C631.203 162.865 631.226 163.052 631.211 163.298C631.198 163.517 631.197 163.769 631.139 163.981C631.131 164.012 631.101 163.988 631.093 163.971Z" fill="#18185E"/>
<path d="M612.979 163.349C612.946 162.888 613.08 162.386 613.311 161.993C613.68 161.365 614.238 160.919 614.922 160.676C615.816 160.358 616.827 160.414 617.719 160.703C617.983 160.789 618.107 161.135 618.011 161.38C617.901 161.66 617.611 161.739 617.347 161.656C617.364 161.661 617.267 161.632 617.285 161.636C617.186 161.609 617.085 161.588 616.984 161.57C616.786 161.534 616.585 161.511 616.384 161.501C616.002 161.482 615.618 161.534 615.248 161.631C614.807 161.747 614.371 161.991 613.989 162.244C613.786 162.378 613.604 162.563 613.436 162.738C613.25 162.932 613.166 163.168 613.026 163.387C613.005 163.42 612.98 163.366 612.979 163.349Z" fill="#18185E"/>
<path d="M641.589 178.827C640.35 178.366 639.477 177.928 638.615 176.899C638.714 178.274 640.315 179.194 641.589 178.827Z" fill="#B55D5D"/>
<path d="M646.364 168.821C645.816 168.021 644.553 167.997 643.697 168.268C642.831 168.542 642.076 169.099 641.528 169.791C641.021 170.431 640.695 171.188 640.56 171.978C640.434 172.717 640.409 173.752 640.969 174.342C641.048 174.426 641.234 174.448 641.257 174.305C641.311 173.96 641.196 173.59 641.169 173.245C641.142 172.898 641.157 172.546 641.21 172.202C641.314 171.514 641.587 170.84 642 170.267C642.033 170.221 642.074 170.18 642.109 170.135C642.113 170.138 642.114 170.141 642.118 170.143C642.732 170.542 643.282 171.03 643.66 171.646C644.053 172.288 644.209 173.022 644.245 173.756C644.247 173.804 644.331 173.916 644.376 173.838C644.808 173.095 644.572 172.132 644.171 171.425C643.775 170.726 643.179 170.157 642.509 169.695C642.859 169.359 643.264 169.078 643.724 168.892C644.564 168.553 645.387 168.679 646.199 169.022C646.343 169.082 646.446 168.942 646.364 168.821Z" fill="#B55D5D"/>
<path d="M644.809 196.524C641.006 206.604 636.591 218.322 635.31 243.28C634.541 258.262 635.617 282.714 635.617 282.714C641.916 284.097 660.371 282.739 666.574 278.209C662.111 262.002 654.447 257.94 654.754 252.486C655.372 241.506 662.46 230.937 661.734 216.729C661.186 205.997 656.732 199.701 656.732 199.701L644.809 196.524Z" fill="url(#paint7_linear_153_1163)"/>
<path d="M622.411 196.074C616.762 205.859 611.804 216.373 610.998 231.16C610.192 245.947 610.998 280.26 610.998 280.26C610.998 280.26 605.301 278.998 602.761 276.139C602.761 261.92 603.542 242.823 603.542 236.276C603.542 229.729 602.464 226.534 603.606 218.788C604.749 211.043 615.397 197.169 615.397 197.169L622.411 196.074Z" fill="url(#paint8_linear_153_1163)"/>
<path d="M612.484 201.345C610.146 203.649 608.412 206.389 606.88 209.274C605.304 212.243 603.59 215.301 602.895 218.619C602.188 221.997 602.439 225.467 602.7 228.88C602.976 232.484 603.058 236.062 602.99 239.675C602.952 241.676 602.899 243.677 602.851 245.678C602.827 246.683 602.791 247.687 602.76 248.692C602.728 249.739 602.791 250.776 602.807 251.823C602.808 251.895 602.88 251.873 602.885 251.812C602.959 250.953 603.098 250.102 603.133 249.24C603.17 248.311 603.207 247.382 603.245 246.452C603.317 244.664 603.421 242.877 603.498 241.09C603.651 237.515 603.783 233.98 603.525 230.406C603.28 227.008 602.929 223.576 603.391 220.181C603.853 216.793 605.433 213.799 606.91 210.765C608.493 207.515 610.178 204.219 612.521 201.442C612.545 201.413 612.526 201.303 612.484 201.345Z" fill="#6C63FF"/>
<path d="M669.212 273.335C669.675 273.589 669.962 274.095 670.048 274.615C670.134 275.135 670.039 275.671 669.885 276.175C669.649 276.946 669.274 277.673 668.782 278.311C668.486 278.694 668.111 279.067 667.631 279.135C666.94 279.233 666.303 278.627 666.129 277.951C665.955 277.275 666.129 276.561 666.334 275.894C666.677 274.773 667.563 272.431 669.212 273.335Z" fill="#B55D5D"/>
<path d="M668.373 272.647C668.703 270.885 669.782 270.338 673.307 268.025C676.832 265.712 684.222 260.427 684.222 260.427L670.674 251.505C670.674 251.505 661.444 259.14 657.969 263.359C655.254 266.655 654.261 270.01 653.38 273.865C652.499 277.72 653.329 279.629 654.731 281.263C656.134 282.897 661.09 285.431 663.183 285.431C665.276 285.431 669.241 282.677 670.673 281.355C672.105 280.033 672.876 275.407 671.775 274.966C670.673 274.525 669.742 275.494 669.021 277.169C668.485 278.415 666.818 278.38 667.369 277.058C667.92 275.737 668.042 274.409 668.373 272.647Z" fill="#D18080"/>
<path d="M656.732 199.701C662.368 201.194 665.486 201.358 669.916 206.609C674.346 211.86 685.833 228.217 689.279 235.791C692.725 243.365 695.843 248.944 690.099 255.179C684.355 261.414 682.387 262.587 682.387 262.587C682.387 262.587 678.777 263.219 674.675 258.789C670.573 254.359 669.752 251.897 669.752 251.897C669.752 251.897 673.034 248.943 672.87 247.138C672.706 245.333 656.297 229.981 656.297 229.981C656.297 229.981 647.978 217.242 656.732 199.701Z" fill="url(#paint9_linear_153_1163)"/>
<path d="M658.608 231.724C658.307 230.94 657.678 230.271 657.227 229.564C656.749 228.815 656.316 228.036 655.932 227.234C655.161 225.625 654.58 223.924 654.169 222.188C653.283 218.442 653.249 214.541 653.709 210.733C653.989 208.416 654.417 206.099 654.94 203.825C654.968 203.702 654.779 203.482 654.716 203.667C652.189 211.164 651.704 219.678 655.054 227.017C655.438 227.859 655.865 228.68 656.346 229.471C656.895 230.374 657.488 231.334 658.332 231.987C658.529 232.139 658.68 231.911 658.608 231.724Z" fill="#6C63FF"/>
<path d="M653.343 61.136H606.876C603.579 61.136 600.907 63.809 600.907 67.105V111.788C600.907 115.085 603.58 117.757 606.876 117.757H622.023C622.451 117.757 622.846 117.984 623.063 118.353L629.299 128.987C629.765 129.781 630.913 129.781 631.378 128.987L637.614 118.353C637.83 117.984 638.226 117.757 638.654 117.757H653.343C656.64 117.757 659.312 115.084 659.312 111.788V67.105C659.312 63.808 656.639 61.136 653.343 61.136Z" fill="white"/>
<path d="M630.337 130.35C629.63 130.35 628.994 129.986 628.637 129.376L622.401 118.741C622.322 118.608 622.177 118.524 622.022 118.524H606.876C603.162 118.524 600.141 115.503 600.141 111.788V67.105C600.141 63.391 603.163 60.369 606.876 60.369H653.343C657.058 60.369 660.079 63.39 660.079 67.105V111.789C660.079 115.503 657.058 118.525 653.343 118.525H638.654C638.499 118.525 638.354 118.608 638.275 118.742L632.039 129.376C631.681 129.986 631.045 130.35 630.337 130.35ZM606.876 61.902C604.008 61.902 601.674 64.236 601.674 67.105V111.789C601.674 114.658 604.008 116.992 606.876 116.992H622.022C622.718 116.992 623.371 117.365 623.723 117.966L629.959 128.601C630.074 128.796 630.262 128.817 630.337 128.817C630.413 128.817 630.601 128.796 630.716 128.6L636.952 117.966C637.305 117.364 637.957 116.991 638.653 116.991H653.342C656.211 116.991 658.545 114.657 658.545 111.788V67.105C658.545 64.236 656.211 61.902 653.342 61.902H606.876Z" fill="#DEEDFE"/>
<path d="M609.923 97.6231C610.05 97.9411 610.187 98.2531 610.329 98.5661C611.038 100.124 611.923 101.584 612.966 102.918C612.993 102.954 613.024 102.994 613.051 103.03C613.054 103.03 613.054 103.033 613.054 103.033C613.651 103.788 614.706 104.003 615.548 103.542L617.251 102.612C617.687 102.373 618.23 102.43 618.606 102.757H618.609C618.733 102.866 618.858 102.969 618.982 103.069C619.303 103.339 619.64 103.596 619.982 103.836C620.782 104.409 621.634 104.912 622.525 105.339C622.907 105.527 623.298 105.697 623.695 105.851C623.828 105.902 623.962 105.954 624.095 106.002C624.21 106.048 624.328 106.09 624.447 106.129C624.92 106.293 625.241 106.732 625.25 107.229L625.296 109.168C625.32 110.129 626.032 110.938 626.987 111.074C628.005 111.223 629.048 111.298 630.112 111.298C631.173 111.298 632.215 111.222 633.236 111.074C634.188 110.938 634.9 110.128 634.924 109.168L634.969 107.229C634.981 106.732 635.299 106.292 635.772 106.129C635.872 106.096 635.969 106.056 636.066 106.02C636.108 106.005 636.148 105.99 636.19 105.974C636.429 105.886 636.666 105.792 636.899 105.695C636.914 105.689 636.926 105.683 636.941 105.677C638.653 104.95 640.229 103.962 641.611 102.756H641.617C641.993 102.429 642.532 102.371 642.972 102.611L644.672 103.541C645.518 104.002 646.572 103.786 647.166 103.035C648.454 101.405 649.515 99.5861 650.297 97.6251C650.388 97.4011 650.433 97.1671 650.436 96.9371C650.454 96.2461 650.109 95.5761 649.491 95.2001L647.83 94.1911C647.46 93.9641 647.245 93.5551 647.26 93.1271C647.263 93.0691 647.269 93.0091 647.281 92.9481C647.326 92.7151 647.369 92.4781 647.402 92.2391C647.405 92.2271 647.405 92.2121 647.408 92.2001C647.42 92.1151 647.429 92.0331 647.441 91.9481C647.468 91.7481 647.493 91.5451 647.514 91.3421C647.52 91.3031 647.523 91.2601 647.526 91.2181C647.578 90.6761 647.608 90.1301 647.608 89.5751C647.608 89.2901 647.599 89.0081 647.584 88.7291C647.584 88.7051 647.584 88.6801 647.581 88.6591C647.569 88.4291 647.554 88.2011 647.533 87.9741C647.524 87.8951 647.518 87.8161 647.509 87.7381C647.494 87.5921 647.476 87.4471 647.457 87.3021C647.408 86.9291 647.354 86.5591 647.281 86.1961C647.257 86.0751 647.254 85.9531 647.266 85.8321C647.308 85.4771 647.511 85.1471 647.833 84.9531L649.491 83.9411C650.315 83.4411 650.655 82.4201 650.297 81.5231C650.17 81.2051 650.033 80.8931 649.891 80.5801C649.185 79.0221 648.297 77.5611 647.254 76.2281C647.227 76.1921 647.199 76.1521 647.169 76.1161C647.169 76.1131 647.166 76.1131 647.166 76.1131C646.569 75.3581 645.514 75.1431 644.672 75.6041L642.969 76.5341C642.533 76.7731 641.99 76.7161 641.614 76.3881H641.611C641.487 76.2791 641.366 76.1761 641.238 76.0761C640.917 75.8061 640.58 75.5491 640.238 75.3091C639.438 74.7361 638.586 74.2331 637.695 73.8061C637.313 73.6181 636.922 73.4481 636.525 73.2941C636.392 73.2421 636.258 73.1911 636.125 73.1421C636.01 73.0971 635.892 73.0541 635.773 73.0151C635.3 72.8511 634.979 72.4121 634.97 71.9151L634.924 69.9761C634.9 69.0151 634.188 68.2061 633.233 68.0701C632.215 67.9211 631.172 67.8461 630.109 67.8461C629.048 67.8461 628.006 67.9221 626.984 68.0701C626.032 68.2061 625.32 69.0161 625.296 69.9761L625.251 71.9151C625.239 72.4121 624.921 72.8521 624.448 73.0151C624.348 73.0481 624.251 73.0881 624.154 73.1241C624.112 73.1391 624.072 73.1541 624.03 73.1691C623.79 73.2571 623.554 73.3511 623.321 73.4481C623.309 73.4541 623.294 73.4601 623.279 73.4661C621.567 74.1931 619.991 75.1811 618.609 76.3881H618.603C618.227 76.7151 617.688 76.7731 617.248 76.5341L615.548 75.6041C614.702 75.1431 613.648 75.3591 613.054 76.1101C611.766 77.7401 610.705 79.5591 609.923 81.5201C609.832 81.7441 609.787 81.9781 609.784 82.2081C609.766 82.8991 610.114 83.5691 610.729 83.9441L612.39 84.9531C612.76 85.1801 612.975 85.5891 612.96 86.0171C612.957 86.0751 612.951 86.1351 612.939 86.1961C612.894 86.4291 612.851 86.6661 612.818 86.9051C612.815 86.9171 612.815 86.9321 612.812 86.9441C612.8 87.0291 612.791 87.1111 612.779 87.1951C612.752 87.3951 612.727 87.5981 612.706 87.8011C612.7 87.8401 612.697 87.8831 612.694 87.9251C612.642 88.4681 612.612 89.0131 612.612 89.5681C612.612 89.8531 612.621 90.1351 612.636 90.4131C612.636 90.4371 612.639 90.4591 612.639 90.4831C612.651 90.7131 612.669 90.9411 612.687 91.1681C612.696 91.2471 612.702 91.3261 612.711 91.4041C612.726 91.5501 612.744 91.6951 612.763 91.8401C612.812 92.2101 612.869 92.5831 612.939 92.9461C612.963 93.0671 612.966 93.1881 612.954 93.3101C612.912 93.6641 612.709 93.9951 612.387 94.1891L610.729 95.2011C609.904 95.7051 609.565 96.7261 609.923 97.6231ZM618.751 89.5771C618.751 83.3041 623.836 78.2181 630.11 78.2181C636.383 78.2181 641.469 83.3031 641.469 89.5771C641.469 95.8511 636.384 100.933 630.11 100.933C623.836 100.933 618.751 95.8501 618.751 89.5771ZM622.639 89.5771C622.639 93.7021 625.985 97.0441 630.109 97.0441C634.234 97.0441 637.579 93.7011 637.579 89.5771C637.579 85.4521 634.233 82.1071 630.109 82.1071C625.985 82.1071 622.639 85.4521 622.639 89.5771Z" fill="#6C63FF"/>
</g>
<defs>
<linearGradient id="paint0_linear_153_1163" x1="375.206" y1="404.557" x2="375.206" y2="34.1476" gradientUnits="userSpaceOnUse">
<stop stop-color="#DEEDFE"/>
<stop offset="0.3743" stop-color="#E7F2FE"/>
<stop offset="0.9706" stop-color="#FEFEFF"/>
<stop offset="1" stop-color="white"/>
</linearGradient>
<linearGradient id="paint1_linear_153_1163" x1="70.8684" y1="323.781" x2="96.7718" y2="360.846" gradientUnits="userSpaceOnUse">
<stop stop-color="#E7B02A"/>
<stop offset="0.2349" stop-color="#E3AA2A"/>
<stop offset="0.5394" stop-color="#D89A28"/>
<stop offset="0.8809" stop-color="#C68026"/>
<stop offset="0.9947" stop-color="#BF7525"/>
</linearGradient>
<linearGradient id="paint2_linear_153_1163" x1="634.313" y1="208.846" x2="632.443" y2="179.403" gradientUnits="userSpaceOnUse">
<stop stop-color="#18185E"/>
<stop offset="0.3284" stop-color="#191C61"/>
<stop offset="0.6295" stop-color="#1C276A"/>
<stop offset="0.9191" stop-color="#21397A"/>
<stop offset="0.9893" stop-color="#223F7F"/>
</linearGradient>
<linearGradient id="paint3_linear_153_1163" x1="584.597" y1="207.917" x2="595.811" y2="252.316" gradientUnits="userSpaceOnUse">
<stop stop-color="#81BFFD"/>
<stop offset="0.3172" stop-color="#7DBCFD"/>
<stop offset="0.6081" stop-color="#72B4FD"/>
<stop offset="0.8878" stop-color="#60A6FC"/>
<stop offset="1" stop-color="#569FFC"/>
</linearGradient>
<linearGradient id="paint4_linear_153_1163" x1="642.555" y1="259.922" x2="638.964" y2="417.715" gradientUnits="userSpaceOnUse">
<stop stop-color="#4862AA"/>
<stop offset="0.3138" stop-color="#455FA6"/>
<stop offset="0.6016" stop-color="#3B569B"/>
<stop offset="0.8783" stop-color="#2B4789"/>
<stop offset="0.9893" stop-color="#223F7F"/>
</linearGradient>
<linearGradient id="paint5_linear_153_1163" x1="633.01" y1="195.957" x2="633.01" y2="274.591" gradientUnits="userSpaceOnUse">
<stop stop-color="#EBF7FF"/>
<stop offset="0.3754" stop-color="#E8F5FF"/>
<stop offset="0.685" stop-color="#DEEFFF"/>
<stop offset="0.9708" stop-color="#CCE4FE"/>
<stop offset="0.9893" stop-color="#CBE3FE"/>
</linearGradient>
<linearGradient id="paint6_linear_153_1163" x1="631.813" y1="190.688" x2="630.955" y2="188.38" gradientUnits="userSpaceOnUse">
<stop stop-color="#D18080"/>
<stop offset="1" stop-color="#B55D5D"/>
</linearGradient>
<linearGradient id="paint7_linear_153_1163" x1="639.456" y1="199.136" x2="652.73" y2="270.541" gradientUnits="userSpaceOnUse">
<stop stop-color="#81BFFD"/>
<stop offset="0.3172" stop-color="#7DBCFD"/>
<stop offset="0.6081" stop-color="#72B4FD"/>
<stop offset="0.8878" stop-color="#60A6FC"/>
<stop offset="1" stop-color="#569FFC"/>
</linearGradient>
<linearGradient id="paint8_linear_153_1163" x1="614.131" y1="197.003" x2="605.434" y2="276.418" gradientUnits="userSpaceOnUse">
<stop stop-color="#81BFFD"/>
<stop offset="0.3172" stop-color="#7DBCFD"/>
<stop offset="0.6081" stop-color="#72B4FD"/>
<stop offset="0.8878" stop-color="#60A6FC"/>
<stop offset="1" stop-color="#569FFC"/>
</linearGradient>
<linearGradient id="paint9_linear_153_1163" x1="658.114" y1="213.185" x2="686.951" y2="253.007" gradientUnits="userSpaceOnUse">
<stop stop-color="#81BFFD"/>
<stop offset="0.3172" stop-color="#7DBCFD"/>
<stop offset="0.6081" stop-color="#72B4FD"/>
<stop offset="0.8878" stop-color="#60A6FC"/>
<stop offset="1" stop-color="#569FFC"/>
</linearGradient>
<clipPath id="clip0_153_1163">
<rect width="750" height="500" fill="white"/>
</clipPath>
</defs>
</svg>
